<svg xmlns="http://www.w3.org/2000/svg" viewBox="0 0 1570 328"><defs><style>.a{fill:#fff;}</style></defs><path class="a" d="M323.29,101.62V237.38h6.14c19,0,38,.1,57-.07a59.16,59.16,0,0,0,13.73-1.59c14.17-3.51,26.68-10.06,36.71-21,27-29.52,24.08-95.38-34.57-109.7C376.35,98.67,349.87,103.39,323.29,101.62Zm398.84,59.09L773.76,102c-15.5,0-29.76-.06-44,.1-1.17,0-2.56,1.34-3.45,2.39-9.32,10.86-18.55,21.81-27.83,32.71-5.19,6.11-10.42,12.18-15.63,18.26l-1.06-.51V102.29H644.05V237.14h38c0-10.25,0-20.22,0-30.18,0-1.6,0-3.62.91-4.71,3.89-4.71,8.11-9.16,12.47-14,1.45,2.1,2.58,3.73,3.69,5.37,9.14,13.5,18.34,27,27.36,40.54a6.26,6.26,0,0,0,6,3.26c12.32-.14,24.66-.05,37-.07,1.4,0,2.8-.23,5-.42ZM1168.24,196c-.42-6.66-.47-12.63-1.23-18.51-5.58-42.9-42.7-53.53-70.52-44-38.61,13.27-44.06,61.46-24.82,86.23,8.67,11.16,19.22,19,34.66,17.76a218.45,218.45,0,0,1,26.47-.07c14.26.58,22.29-8.85,31.2-17.93l-20.9-17.22c-10.23,9.69-21.42,13.87-34.55,8.31-6.06-2.57-9.9-7.36-10.81-14.61ZM880,196.11c0-5.23.34-9.88-.05-14.47-3.21-38.26-31-56.2-64.09-50-20.82,3.92-34.38,17.17-39.93,37.5-5.71,20.92-2.51,40.45,13.25,56.42,7.74,7.85,16.92,12.88,28.86,12,10.43-.8,21-.15,31.46-.18,1.48,0,3.16.18,4.41-.42,8.62-4.16,16.31-9.56,22.27-17.64l-20.58-17c-13.08,10.79-23.2,13.34-34,8.64-6.38-2.77-10.15-7.62-11.64-14.82Zm-377.72,0H572c0-5.66.29-10.64,0-15.58-2.57-37.84-37.77-60.35-72.79-46.42-38.36,15.27-41.62,64.29-21.44,87.66,8.79,10.19,19.16,17.11,33.71,15.79,8.76-.79,17.65-.39,26.47-.12,14,.44,21.79-9,30.63-17.9L547.68,202.3C529.08,220.9,504.33,212.74,502.24,196.09Zm497.87-33.54c-1.71,1.92-2.64,3-3.63,4.07q-20.85,22.22-41.69,44.43c-1.18,1.26-2.6,3-2.66,4.51-.28,7.11-.12,14.24-.12,21.58h97.82V208.72h-47.59c1.48-1.67,2.33-2.67,3.22-3.63q21-22.38,42.07-44.77c1.08-1.16,2.45-2.68,2.49-4.07.25-7.6.12-15.22.12-23H954.21v29.3Zm222.67,74.56c0-2.06,0-3.84,0-5.62.06-10.82-.24-21.67.29-32.47.88-17.88,10.34-27.31,27.7-28.47,1.63-.11,3.25-.26,4.83-.38v-39c-15.6-1.35-25.2,6.83-32,19.74l-1-.88V133.21h-37.19v103.9Zm-289.11,0V133.26H896.23V237.14ZM34.4,105.35c7.91,13.64,19.79,23,32.61,31.7,3.58,2.43,5.72,7.11,8.24,10.94,1.15,1.77,1.48,4.06,2.43,6,.43.88,1.75,2.2,2.18,2a5.28,5.28,0,0,0,2.52-2.42,8,8,0,0,0,.57-3.41c.28-10.66-1.54-20.89-6.87-30.26C61.78,94.8,37.69,82.75,11.87,71.6c.77,6.74,1.34,12.66,2.15,18.56,2.05,14.93,5.73,29.31,13.48,42.49,4.88,8.31,12.1,13.61,20.76,17.08A23,23,0,0,0,57,151c3.47-.07,5-2,2.61-5.21a59.28,59.28,0,0,0-7.89-9C42.12,128.52,38.17,117.11,34.4,105.35Zm1528.42-33.6c-22.11,9.2-42.74,19.69-57.81,38.55-9.66,12.09-14.11,25.9-12.92,41.37.12,1.51,1.49,2.91,2.27,4.36,1.12-1.15,2.86-2.11,3.25-3.47,2.61-9,8.27-15.27,16.23-20,10.51-6.24,18.54-15.07,24.91-25.45a10.59,10.59,0,0,0,.77-1.28,14.11,14.11,0,0,0,.49-1.56l1,1c-4.15,11.18-7.94,22.53-17.32,30.85a52.88,52.88,0,0,0-7.11,7.7c-1.18,1.57-1.52,3.78-2.24,5.71,2,.55,4.07,1.79,6,1.53a35.66,35.66,0,0,0,25.64-16.42C1558.36,115.77,1560.68,94.07,1562.82,71.75ZM608.9,61.68l.36-1.75c-1.92-.38-3.85-1.09-5.78-1.09q-265-.08-529.94-.05a13,13,0,0,0-4,.14c-.88.29-1.45,1.48-2.59,2.75Zm632.53.32h259.9a37.19,37.19,0,0,0,4.48-.14c.47,0,1.27-.88,1.2-1.18-.15-.65-.69-1.58-1.22-1.7a18.78,18.78,0,0,0-4-.19h-54q-233.16,0-466.32.06c-1.84,0-3.69,1-5.53,1.55,1.85.54,3.68,1.11,5.55,1.58a8.81,8.81,0,0,0,2,0ZM65.75,221.25c8.22,1.77,17,4.07,25.87,5.43,5.63.86,10.6,2.33,14.8,6.27,1.21,1.13,3,1.69,4.44,2.52-1.18-8.33-5.94-13.69-11.49-18.2C81.16,202.49,59.87,203.08,38.21,205c.08.93,0,1.31.15,1.55q1.2,1.89,2.51,3.72C49.25,222,58.37,233,71.66,239.59A26.17,26.17,0,0,0,92,240.91c1.33-.44,2.22-2.19,3.31-3.34-.92-.85-1.71-2-2.8-2.49a90.42,90.42,0,0,0-10.33-3.52C75.23,229.73,70.18,225.16,65.75,221.25Zm40.08-66.8,1.67-.49c1.36,6.39,3.09,12.73,4,19.19.53,3.89-.44,8-.34,11.94,0,1.62,1.13,3.21,1.74,4.81,1.63-.92,3.82-1.45,4.8-2.84a26.93,26.93,0,0,0,4.94-19.8c-2.26-16.23-10.78-29.42-20.37-42.82a115.05,115.05,0,0,0-12.12,34c-2.74,15.53,0,29.82,10.07,42.26,1.19,1.47,3.11,2.34,4.7,3.49l1.2-1.32c-.63-1.66-1.58-3.28-1.81-5-.59-4.21-2-8.8-1-12.65C106.06,175.08,107.5,165,105.83,154.45Zm-96.35,2.8c9.14,14.69,18.46,28.13,33.69,36a25,25,0,0,0,19.34,1.84c1.39-.44,2.45-1.94,3.67-2.94-1.09-1.09-2-2.56-3.3-3.2a87.89,87.89,0,0,0-8.82-3.42A42.37,42.37,0,0,1,35,171.47c9.28,5.89,18.69,8.05,28.42,9.72,4.79.82,9.22,3.88,13.73,6.09a34.1,34.1,0,0,1,4.41,3.06l1.09-.88c-.5-1.65-.58-3.62-1.56-4.91-3.68-4.89-7-10.34-11.62-14.17C52.08,156,31.24,156.3,9.48,157.25ZM1479.4,267c-6.88,7.45-9.31,8.7-26.08,14.89-1.76.65-3.1,2.46-4.63,3.72,1.7,1.16,3.24,2.83,5.12,3.38a25,25,0,0,0,18.43-1.88c15.08-7.42,24.77-20.2,34.66-35-10.74,0-20.36-.67-29.86.15-17.53,1.5-32.53,8.22-42.21,23.87-1.17,1.89-1.72,4.16-2.56,6.25l1.5.95a33.12,33.12,0,0,1,4.12-3.1c3.58-2,7.13-4.84,10.95-5.35C1459.37,273.49,1469.89,272.51,1479.4,267ZM94.23,268.41c.93-1.06,1.07-1.31,1.15-1.29a6.47,6.47,0,0,1,1.83.46c7.91,4.28,16.43,5.83,25.31,6.85,4.81.55,9.38,3.54,14,5.63a31.47,31.47,0,0,1,4.66,3.25l1.26-.83c-.63-1.88-1-3.94-2-5.6a47.37,47.37,0,0,0-22.52-19.71c-11.78-5-24.17-5.86-36.74-5.42-4,.14-8.11.44-13.31.73,3.12,4.33,5.37,7.59,7.76,10.74,7.1,9.37,15,17.82,25.68,23.28,6.6,3.39,13.53,4.57,20.7,2.3,1.55-.49,2.73-2.15,4.08-3.27-1.25-1.16-2.3-2.76-3.77-3.39-3.2-1.34-6.83-1.76-9.88-3.33C106.28,275.65,100.39,272,94.23,268.41Zm1369.82-33a21.53,21.53,0,0,0,4.16-2.41c4.22-3.85,9-5.6,14.78-6.31,7-.86,13.93-2.82,20.82-4.58,2.41-.61,4.62-2,6.92-3.06-6.27,6.92-13.62,11.74-22.65,13.92-3.19.77-6.15,2.47-9.22,3.74,0,.58,0,1.16.05,1.73,1.77,1,3.56,3,5.3,2.93,6.19-.17,12.84.25,18.43-1.89,10.27-3.92,17.93-11.88,24.65-20.51,3.39-4.35,6.58-8.85,10.14-13.65C1501,200.22,1471.64,210.15,1464.05,235.44Zm4.9-32.17,1.52,1a31.33,31.33,0,0,0,4.19-3.65c9-11.06,12.12-23.74,10.54-37.81-1.52-13.48-6.21-25.83-12.64-38.34-7.85,10.77-14.64,21.17-18.32,33.25-2.69,8.78-3.84,17.68.91,26.15,1.53,2.74,2.93,6.38,8,6.06,1-12.29-2.16-25.2,6.31-37.17-2.86,11.75-.63,22,2,32.46,1,3.89-.43,8.43-1,12.65A33.81,33.81,0,0,1,1469,203.27Zm96.29-46c-13.84-.62-26.9-.91-39.72,2.71-13.18,3.72-23.86,10.83-30.86,22.86a57.48,57.48,0,0,0-2.79,6.48l1.2,1c1.36-.86,2.71-1.73,4.08-2.57,3.35-2.06,6.51-5.31,10.12-5.94,11.09-1.93,22.22-3.34,32.23-9.4a7.62,7.62,0,0,1-2,2.31c-7,7.75-16.61,10.65-25.85,14.32-1.24.5-2.13,1.87-3.18,2.83,1.13,1.07,2.26,3.06,3.4,3.06,6,0,12.74,1.14,17.95-1.08C1546.31,186.78,1555.9,172.46,1565.24,157.24Zm-1423,19.69c-7.12,10.5-12.81,21.08-16.19,32.81-4.19,14.55-3.63,28.65,4.48,41.87a41.25,41.25,0,0,0,4.12,4.88l1.39-.76a49.26,49.26,0,0,1-.67-5.64c-.06-4-1-8.32.35-11.77,4.1-10.54,7.52-21.06,6.23-33.08,6.86,12.72,2,25.54,2.62,38.51,2.47-.81,4.59-1.73,6-3.29a26.11,26.11,0,0,0,6.66-17.3C157.56,206.29,150.34,191.9,142.25,176.93Zm1297.56,80a49,49,0,0,0,4.43-5.36c12.34-20.32,6.54-56-12-74.1-9.64,16.68-14,29.4-14.69,42.94a27.43,27.43,0,0,0,7.46,21c1.08,1.15,3.16,1.36,4.79,2a21.65,21.65,0,0,0,1.1-4.51,20.38,20.38,0,0,0-.71-5.42,45.88,45.88,0,0,1,1.82-27.32c.75,5.85.71,12.84,2.69,19.22,3,9.81,7.3,19.21,4,29.8C1438.71,255.31,1438.9,255.49,1439.81,257ZM895.64,123.71h38.78V96H895.64ZM749.14,295l-7.21-4L738,297.46l-6.4-4.65c8.42-5.07,11-10.55,8.29-16.51-2.64-5.79-10.32-8.4-17.24-5.86-7.43,2.72-8.87,7.77-5.71,20-7.76,5.7-10.17,12.42-6,18.53a15.81,15.81,0,0,0,7.29,5.62c6.86,2.46,13.33.4,19.08-3.68l5.26,4.92,7.32-5.37C740.43,305.81,745.32,300.54,749.14,295Zm78.37,19.74V268.47H818v15.67c-9.12-5.58-16.59-5.07-22,1.16s-5.86,18.36-.3,24.5c2.2,2.42,5.63,4.86,8.66,5.1,4.42.34,9-1.3,13.6-2.11C818.62,315.44,818.62,315.44,827.51,314.7ZM725.91,56.56c9.75,5.51,17.4,4.88,22.5-1.44,5.37-6.66,5.13-18.9-.49-25-5.77-6.28-13.07-6.58-21.58-.68-.27-1.24-.52-2.37-.7-3.18h-9.08V69.86h9.35ZM779,56.41c9,5.68,16.94,5.15,22.19-1,5.52-6.46,5.52-18.59,0-25s-13-6.91-21.7-1.18c-1.65-6.48-6.4-2.17-10-3.42v44H779ZM169.55,279.84c-.11.84-.23,1.69-.34,2.53A54.69,54.69,0,0,0,175,283q146.94,0,293.88,0a14.93,14.93,0,0,0,3.48-.09c.73-.18,1.3-1,1.95-1.56a7.93,7.93,0,0,0-2.11-1.46,11.38,11.38,0,0,0-3-.07H169.55Zm821.89,2.37c-12.77-5.1-16.64,4.75-23.53,10.68V268.5h-9.45v46.13h9.31c.68-10.71.68-10.71,4-12.82,5,6,6.74,17,19.19,12.47-3.68-5.68-7.24-11.42-11.08-17-1.67-2.4-1.57-4,.67-5.86C984.06,288.63,987.41,285.66,991.44,282.21Zm401.15.79.37-2.2a28.73,28.73,0,0,0-5.12-.93q-136.39-.06-272.78,0a24,24,0,0,0-4,.19c-.41.07-.94.93-.94,1.43a1.79,1.79,0,0,0,1,1.39,18.33,18.33,0,0,0,3.48.15h278ZM644,314.84c0-6.51-.08-12.48,0-18.46.07-4,1.21-7.46,6.15-7.33s5.81,3.57,5.8,7.62c0,5.95,0,11.91,0,17.91h9.83c0-6.56,0-12.7,0-18.84a41.94,41.94,0,0,0-.11-4.49c-.79-7.46-5.83-12.11-12.62-11-3.1.51-6,2.39-8.64,3.53-2-5.77-6.49-1.94-9.84-2.79v33.84Zm287-.2h9.69c0-8.15.48-16-.12-23.73-.78-10-10.62-14.07-18.72-8.21-.76.55-1.47,1.18-2.32,1.87-1.77-7.09-6.57-2.34-10-3.72v33.86H919c0-6.24-.07-12.2,0-18.16.06-4,1.07-7.41,6-7.52,4-.08,5.88,2.34,5.93,7.48C931.05,302.48,931,308.44,931,314.64Zm142,0h9.68c0-8.14.49-16-.12-23.72-.79-10-10.69-14.11-18.72-8.24-.76.56-1.45,1.19-2,1.66-2.28-6.09-6.73-2.62-10.29-3.34v33.71H1061c0-6.24-.08-12.21,0-18.17.06-4,1.08-7.41,6-7.52,4-.09,5.86,2.29,5.92,7.5C1073.05,302.49,1073,308.45,1073,314.65ZM673.57,35c14-2,15.74-1.5,16.45,5-7.7-.82-16-3.07-20.77,5.73-2.2,4.12-1.35,8.49,2.22,11.87,4.3,4.09,10.78,4,18.42-.08,2.31,4.63,6.16,1.86,9.65,2.36,0-8,.24-15.61-.1-23.2a10.39,10.39,0,0,0-7.25-9.85c-7.06-2.46-14-1.78-20.83,1.54Zm338.48,266.22h22.62c1.36-10.4-3-18.08-11-20.32-8.55-2.38-16.92,1.41-20.36,9.22-3.7,8.42-.91,18.5,6.38,23a18.09,18.09,0,0,0,23.59-3.9l-5-4.36C1019.57,309.93,1013.76,308.73,1012.05,301.17Zm-483.74,3.6c-8.75,5.18-14.56,4-16.24-3.63h22.64c1.27-10.69-3.2-18.29-11.59-20.41s-16.52,1.75-19.84,9.4c-3.68,8.5-.86,18.55,6.44,22.95a18,18,0,0,0,23.54-3.94Zm89.35-3.44c1.36-10.58-2.94-18.2-11-20.46-8.54-2.39-16.93,1.41-20.34,9.21-3.69,8.42-.86,18.64,6.37,23a18,18,0,0,0,23.59-3.93l-5-4.33c-8.82,5.12-14.51,3.94-16.2-3.48Zm235.05-255c1.25-10.94-3.17-18.44-11.57-20.56s-16.53,1.72-19.84,9.36c-3.69,8.53-.93,18.47,6.39,23a18,18,0,0,0,23.52-3.88l-4.9-4.39c-8.72,5.15-14.6,3.91-16.18-3.49Zm-228.54-22h13.76V59.68h10V24h12.9V15.48H624.53c-.14,1.22-.31,2.18-.34,3.13C624.14,20.24,624.17,21.86,624.17,24.32ZM553,289.26c0,3.07,0,5.56,0,8.05a93.84,93.84,0,0,0,.14,10.48c.72,6.27,5.66,8.77,13.3,7.38,5.81-1.07,3.77-5,3.64-8.34-2.81-.61-6.89,2.07-7.18-3-.27-4.77-.06-9.57-.06-14.53l7.58-.55v-7.65l-7.32-.54c-.21-3-.38-5.55-.57-8.28h-9c-1.6,3.27,2.09,8.83-4.81,9.13C549.73,284.49,546.17,289.19,553,289.26Zm292.49-8.19V314.6h9.12c2-9.41-4.31-22,11.17-24.86V278.66l-10.66,6.48c-.08-1-.21-2.47-.35-4.07Zm33-221.23c2.32-9.4-4.35-22.21,11.16-25V23.6l-10.48,6.64c-.12-1.07-.29-2.62-.45-4h-9.12V59.84Zm49.89,9.6c8.25,2.13,14.33-.37,14.63-6.78.57-12.07.16-24.2.16-36.49h-9.34c0,10.17-.16,20,.08,29.78.1,4.13-.82,6.87-5.53,7ZM890.13,314.77V281.14h-9v33.63Zm15-288.66V59.6h9V26.11Zm28.76-12.64V21.6h9.49V13.47Zm-19.46,8.35V13.61H905v8.21ZM880.86,276.73h9.68v-8.25h-9.68ZM508.78,239c9,2.49,18,2.77,27,0Zm308.07,0c-.05.41-.09.82-.14,1.22h27v-1.22Zm287.59,0c0,.38,0,.76,0,1.14h27V239Z"/><path d="M323.29,101.62c26.58,1.77,53.06-3,79,3.39,58.65,14.32,61.62,80.18,34.57,109.7-10,10.95-22.54,17.5-36.71,21a59.16,59.16,0,0,1-13.73,1.59c-19,.17-38,.07-57,.07h-6.14Zm38.07,33.9c0,22.78,0,44.39.14,66,0,1.06,2.06,3,3.17,3,7,0,14,.17,20.92-.71,16.7-2.15,27.87-14.6,28.39-30.89.63-19.47-8.44-32.49-26.1-35.73C379.48,135.65,370.72,136,361.36,135.52Z"/><path d="M722.13,160.71,774.44,237c-2.19.19-3.59.41-5,.42-12.33,0-24.67-.07-37,.07a6.26,6.26,0,0,1-6-3.26c-9-13.57-18.22-27-27.36-40.54-1.11-1.64-2.24-3.27-3.69-5.37-4.36,4.82-8.58,9.27-12.47,14-.9,1.09-.9,3.11-.91,4.71-.08,10,0,19.93,0,30.18h-38V102.29h37.72v52.63l1.06.51c5.21-6.08,10.44-12.15,15.63-18.26,9.28-10.9,18.51-21.85,27.83-32.71.89-1,2.28-2.37,3.45-2.39,14.26-.16,28.52-.1,44-.1Z"/><path d="M1168.24,196h-70.5c.91,7.25,4.75,12,10.81,14.61,13.13,5.56,24.32,1.38,34.55-8.31l20.9,17.22c-8.91,9.08-16.94,18.51-31.2,17.93a218.45,218.45,0,0,0-26.47.07c-15.44,1.24-26-6.6-34.66-17.76-19.24-24.77-13.79-73,24.82-86.23,27.82-9.57,64.94,1.06,70.52,44C1167.77,183.37,1167.82,189.34,1168.24,196ZM1132,176.63c-.17-10.54-7.43-18.29-16.84-18.45-9.74-.16-17.42,7.69-17.84,18.45Z"/><path d="M880,196.11H809.87c1.49,7.2,5.26,12,11.64,14.82,10.85,4.7,21,2.15,34-8.64l20.58,17c-6,8.08-13.65,13.48-22.27,17.64-1.25.6-2.93.42-4.41.42-10.49,0-21-.62-31.46.18-11.94.92-21.12-4.11-28.86-12-15.76-16-19-35.5-13.25-56.42,5.55-20.33,19.11-33.58,39.93-37.5,33.09-6.23,60.88,11.71,64.09,50C880.3,186.23,880,190.88,880,196.11Zm-35.33-19.5c-.68-10.9-7.62-18.28-17.19-18.47s-16.71,7.2-17.91,18.47Z"/><path d="M502.24,196.09c2.09,16.65,26.84,24.81,45.44,6.21l20.85,17.22c-8.84,8.85-16.6,18.34-30.63,17.9-8.82-.27-17.71-.67-26.47.12-14.55,1.32-24.92-5.6-33.71-15.79-20.18-23.37-16.92-72.39,21.44-87.66,35-13.93,70.22,8.58,72.79,46.42.33,4.94,0,9.92,0,15.58H502.24Zm34.43-19.41c-.38-11-8-18.77-17.79-18.55-9.22.21-17.11,8.83-16.8,18.55Z"/><path d="M1000.11,162.55h-45.9v-29.3h95.93c0,7.78.13,15.4-.12,23,0,1.39-1.41,2.91-2.49,4.07q-21,22.43-42.07,44.77c-.89,1-1.74,2-3.22,3.63h47.59v28.42H952c0-7.34-.16-14.47.12-21.58.06-1.55,1.48-3.25,2.66-4.51q20.78-22.28,41.69-44.43C997.47,165.57,998.4,164.47,1000.11,162.55Z"/><path d="M1222.78,237.11h-37.41V133.21h37.19v16.86l1,.88c6.82-12.91,16.42-21.09,32-19.74v39c-1.58.12-3.2.27-4.83.38-17.36,1.16-26.82,10.59-27.7,28.47-.53,10.8-.23,21.65-.29,32.47C1222.77,233.27,1222.78,235.05,1222.78,237.11Z"/><path d="M933.67,237.14H896.23V133.26h37.44Z"/><path d="M34.4,105.35c3.77,11.76,7.72,23.17,17.36,31.51a59.28,59.28,0,0,1,7.89,9C62.07,149,60.51,151,57,151a23,23,0,0,1-8.78-1.31C39.6,146.26,32.38,141,27.5,132.65,19.75,119.47,16.07,105.09,14,90.16c-.81-5.9-1.38-11.82-2.15-18.56,25.82,11.15,49.91,23.2,64.21,48.33,5.33,9.37,7.15,19.6,6.87,30.26a8,8,0,0,1-.57,3.41A5.28,5.28,0,0,1,79.86,156c-.43.16-1.75-1.16-2.18-2-1-1.93-1.28-4.22-2.43-6-2.52-3.83-4.66-8.51-8.24-10.94C54.19,128.39,42.31,119,34.4,105.35Z"/><path d="M1562.82,71.75c-2.14,22.32-4.46,44-16.88,62.9a35.66,35.66,0,0,1-25.64,16.42c-1.88.26-4-1-6-1.53.72-1.93,1.06-4.14,2.24-5.71a52.88,52.88,0,0,1,7.11-7.7c9.38-8.32,13.17-19.67,17.32-30.85l-1-1a14.11,14.11,0,0,1-.49,1.56,10.59,10.59,0,0,1-.77,1.28c-6.37,10.38-14.4,19.21-24.91,25.45-8,4.72-13.62,11-16.23,20-.39,1.36-2.13,2.32-3.25,3.47-.78-1.45-2.15-2.85-2.27-4.36-1.19-15.47,3.26-29.28,12.92-41.37C1520.08,91.44,1540.71,81,1562.82,71.75Z"/><path d="M608.9,61.68H67c1.14-1.27,1.71-2.46,2.59-2.75a13,13,0,0,1,4-.14q265,0,529.94.05c1.93,0,3.86.71,5.78,1.09Z"/><path d="M1241.43,62H983.53a8.81,8.81,0,0,1-2,0c-1.87-.47-3.7-1-5.55-1.58,1.84-.53,3.69-1.54,5.53-1.55q233.16-.1,466.32-.06h54a18.78,18.78,0,0,1,4,.19c.53.12,1.07,1.05,1.22,1.7.07.3-.73,1.13-1.2,1.18a37.19,37.19,0,0,1-4.48.14Z"/><path d="M65.75,221.25c4.43,3.91,9.48,8.48,16.45,10.31a90.42,90.42,0,0,1,10.33,3.52c1.09.44,1.88,1.64,2.8,2.49-1.09,1.15-2,2.9-3.31,3.34a26.17,26.17,0,0,1-20.36-1.32C58.37,233,49.25,222,40.87,210.29q-1.3-1.83-2.51-3.72c-.15-.24-.07-.62-.15-1.55,21.66-1.94,42.95-2.53,61.16,12.25,5.55,4.51,10.31,9.87,11.49,18.2-1.49-.83-3.23-1.39-4.44-2.52-4.2-3.94-9.17-5.41-14.8-6.27C82.72,225.32,74,223,65.75,221.25Z"/><path d="M105.83,154.45c1.67,10.51.23,20.63-2.54,30.8-1.05,3.85.4,8.44,1,12.65.23,1.72,1.18,3.34,1.81,5l-1.2,1.32c-1.59-1.15-3.51-2-4.7-3.49C90.09,188.29,87.38,174,90.12,158.47a115.05,115.05,0,0,1,12.12-34c9.59,13.4,18.11,26.59,20.37,42.82a26.93,26.93,0,0,1-4.94,19.8c-1,1.39-3.17,1.92-4.8,2.84-.61-1.6-1.7-3.19-1.74-4.81-.1-4,.87-8.05.34-11.94-.88-6.46-2.61-12.8-4-19.19Z"/><path d="M9.48,157.25c21.76-.95,42.6-1.23,60,13.13,4.63,3.83,7.94,9.28,11.62,14.17,1,1.29,1.06,3.26,1.56,4.91l-1.09.88a34.1,34.1,0,0,0-4.41-3.06c-4.51-2.21-8.94-5.27-13.73-6.09-9.73-1.67-19.14-3.83-28.42-9.72a42.37,42.37,0,0,0,19.09,14.05,87.89,87.89,0,0,1,8.82,3.42c1.31.64,2.21,2.11,3.3,3.2-1.22,1-2.28,2.5-3.67,2.94a25,25,0,0,1-19.34-1.84C27.94,185.38,18.62,171.94,9.48,157.25Z"/><path d="M1479.4,267c-9.51,5.47-20,6.45-30.56,7.85-3.82.51-7.37,3.39-10.95,5.35a33.12,33.12,0,0,0-4.12,3.1l-1.5-.95c.84-2.09,1.39-4.36,2.56-6.25,9.68-15.65,24.68-22.37,42.21-23.87,9.5-.82,19.12-.15,29.86-.15-9.89,14.83-19.58,27.61-34.66,35a25,25,0,0,1-18.43,1.88c-1.88-.55-3.42-2.22-5.12-3.38,1.53-1.26,2.87-3.07,4.63-3.72C1470.09,275.74,1472.52,274.49,1479.4,267Z"/><path d="M94.23,268.41c6.16,3.56,12,7.24,18.22,10.4,3,1.57,6.68,2,9.88,3.33,1.47.63,2.52,2.23,3.77,3.39-1.35,1.12-2.53,2.78-4.08,3.27-7.17,2.27-14.1,1.09-20.7-2.3C90.69,281,82.74,272.59,75.64,263.22c-2.39-3.15-4.64-6.41-7.76-10.74,5.2-.29,9.26-.59,13.31-.73,12.57-.44,25,.38,36.74,5.42a47.37,47.37,0,0,1,22.52,19.71c1,1.66,1.32,3.72,2,5.6l-1.26.83a31.47,31.47,0,0,0-4.66-3.25c-4.58-2.09-9.15-5.08-14-5.63-8.88-1-17.4-2.57-25.31-6.85a6.47,6.47,0,0,0-1.83-.46C95.3,267.1,95.16,267.35,94.23,268.41Z"/><path d="M1464.05,235.44c7.59-25.29,36.94-35.22,73.38-30.09-3.56,4.8-6.75,9.3-10.14,13.65-6.72,8.63-14.38,16.59-24.65,20.51-5.59,2.14-12.24,1.72-18.43,1.89-1.74,0-3.53-1.9-5.3-2.93,0-.57,0-1.15-.05-1.73,3.07-1.27,6-3,9.22-3.74,9-2.18,16.38-7,22.65-13.92-2.3,1-4.51,2.45-6.92,3.06-6.89,1.76-13.79,3.72-20.82,4.58-5.73.71-10.56,2.46-14.78,6.31A21.53,21.53,0,0,1,1464.05,235.44Z"/><path d="M1469,203.27a33.81,33.81,0,0,0,1.58-5.39c.55-4.22,2-8.76,1-12.65-2.64-10.42-4.87-20.71-2-32.46-8.47,12-5.31,24.88-6.31,37.17-5.11.32-6.51-3.32-8-6.06-4.75-8.47-3.6-17.37-.91-26.15,3.68-12.08,10.47-22.48,18.32-33.25,6.43,12.51,11.12,24.86,12.64,38.34,1.58,14.07-1.56,26.75-10.54,37.81a31.33,31.33,0,0,1-4.19,3.65Z"/><path d="M1565.24,157.24c-9.34,15.22-18.93,29.54-35.41,36.59-5.21,2.22-11.92,1.09-17.95,1.08-1.14,0-2.27-2-3.4-3.06,1-1,1.94-2.33,3.18-2.83,9.24-3.67,18.87-6.57,25.85-14.32a7.62,7.62,0,0,0,2-2.31c-10,6.06-21.14,7.47-32.23,9.4-3.61.63-6.77,3.88-10.12,5.94-1.37.84-2.72,1.71-4.08,2.57l-1.2-1a57.48,57.48,0,0,1,2.79-6.48c7-12,17.68-19.14,30.86-22.86C1538.34,156.33,1551.4,156.62,1565.24,157.24Z"/><path d="M142.25,176.93c8.09,15,15.31,29.36,15,46.23a26.11,26.11,0,0,1-6.66,17.3c-1.38,1.56-3.5,2.48-6,3.29-.57-13,4.24-25.79-2.62-38.51,1.29,12-2.13,22.54-6.23,33.08-1.34,3.45-.41,7.82-.35,11.77a49.26,49.26,0,0,0,.67,5.64l-1.39.76a41.25,41.25,0,0,1-4.12-4.88c-8.11-13.22-8.67-27.32-4.48-41.87C129.44,198,135.13,187.43,142.25,176.93Z"/><path d="M1439.81,257c-.91-1.48-1.1-1.66-1.07-1.76,3.28-10.59-1-20-4-29.8-2-6.38-1.94-13.37-2.69-19.22a45.88,45.88,0,0,0-1.82,27.32,20.38,20.38,0,0,1,.71,5.42,21.65,21.65,0,0,1-1.1,4.51c-1.63-.64-3.71-.85-4.79-2a27.43,27.43,0,0,1-7.46-21c.7-13.54,5-26.26,14.69-42.94,18.52,18.15,24.32,53.78,12,74.1A49,49,0,0,1,1439.81,257Z"/><path d="M895.64,123.71V96h38.78v27.71Z"/><path d="M749.14,295c-3.82,5.58-8.71,10.85.8,15.49l-7.32,5.37-5.26-4.92c-5.75,4.08-12.22,6.14-19.08,3.68A15.81,15.81,0,0,1,711,309c-4.18-6.11-1.77-12.83,6-18.53-3.16-12.22-1.72-17.27,5.71-20,6.92-2.54,14.6.07,17.24,5.86,2.72,6,.13,11.44-8.29,16.51l6.4,4.65,3.89-6.51Zm-16.71,9.26c-2.43-1.92-4.32-3.52-6.33-5-1.23-.86-3.19-2.36-3.88-2a6.14,6.14,0,0,0-2.88,4.18,6.45,6.45,0,0,0,2.28,4.89C724.8,308.49,728.15,307.82,732.43,304.22Zm-6.23-17.07c5.29-2,7.52-5,5.42-7.71-1-1.26-4.54-2.16-5.67-1.38C722.17,280.64,723.76,283.9,726.2,287.15Z"/><path d="M827.51,314.7c-8.89.74-8.89.74-9.51-1.91-4.61.81-9.18,2.45-13.6,2.11-3-.24-6.46-2.68-8.66-5.1-5.56-6.14-5.13-18.22.3-24.5s12.84-6.74,22-1.16V268.47h9.51Zm-9.34-17c0-5.33-3.58-9.33-8.3-9.4-4.51-.07-8.33,4.18-8.42,9.37-.08,5.37,3.82,9.68,8.66,9.55S818.22,303.18,818.17,297.74Z"/><path d="M725.91,56.56v13.3h-9.35V26.25h9.08c.18.81.43,1.94.7,3.18,8.51-5.9,15.81-5.6,21.58.68,5.62,6.11,5.86,18.35.49,25C743.31,61.44,735.66,62.07,725.91,56.56ZM726,43c0,5.49,3.39,9.27,8.23,9.27s8.2-3.76,8.27-9.26-3.76-9.87-8.5-9.69S726,37.61,726,43Z"/><path d="M779,56.41V69.79h-9.52v-44c3.61,1.25,8.36-3.06,10,3.42,8.73-5.73,16.11-5.33,21.7,1.18s5.52,18.55,0,25C795.91,61.56,788,62.09,779,56.41Zm7.65-4.23c5,.32,8.58-3.13,8.93-8.57s-3.22-10.06-7.91-10.31c-4.4-.24-8.22,3.55-8.63,8.56C778.56,47.51,781.77,51.87,786.62,52.18Z"/><path d="M169.55,279.84h299.7a11.38,11.38,0,0,1,3,.07,7.93,7.93,0,0,1,2.11,1.46c-.65.54-1.22,1.38-1.95,1.56a14.93,14.93,0,0,1-3.48.09Q322,283,175,283a54.69,54.69,0,0,1-5.82-.61C169.32,281.53,169.44,280.68,169.55,279.84Z"/><path d="M991.44,282.21c-4,3.45-7.38,6.42-10.85,9.24-2.24,1.82-2.34,3.46-.67,5.86,3.84,5.55,7.4,11.29,11.08,17-12.45,4.56-14.15-6.48-19.19-12.47-3.36,2.11-3.36,2.11-4,12.82h-9.31V268.5h9.45v24.39C974.8,287,978.67,277.11,991.44,282.21Z"/><path d="M1392.59,283h-278a18.33,18.33,0,0,1-3.48-.15,1.79,1.79,0,0,1-1-1.39c0-.5.53-1.36.94-1.43a24,24,0,0,1,4-.19q136.39,0,272.78,0a28.73,28.73,0,0,1,5.12.93Z"/><path d="M644,314.84H634.6V281c3.35.85,7.8-3,9.84,2.79,2.68-1.14,5.54-3,8.64-3.53,6.79-1.12,11.83,3.53,12.62,11a41.94,41.94,0,0,1,.11,4.49c0,6.14,0,12.28,0,18.84H656c0-6,0-12,0-17.91,0-4.05-.9-7.49-5.8-7.62s-6.08,3.32-6.15,7.33C644,302.36,644,308.33,644,314.84Z"/><path d="M931,314.64c0-6.2,0-12.16,0-18.13-.05-5.14-2-7.56-5.93-7.48-4.94.11-5.95,3.55-6,7.52-.1,6,0,11.92,0,18.16h-9.48V280.85c3.43,1.38,8.23-3.37,10,3.72.85-.69,1.56-1.32,2.32-1.87,8.1-5.86,17.94-1.77,18.72,8.21.6,7.75.12,15.58.12,23.73Z"/><path d="M1073,314.65c0-6.2.06-12.16,0-18.12-.06-5.21-2-7.59-5.92-7.5-4.94.11-6,3.56-6,7.52-.11,6,0,11.93,0,18.17h-9.49V281c3.56.72,8-2.75,10.29,3.34.57-.47,1.26-1.1,2-1.66,8-5.87,17.93-1.74,18.72,8.24.61,7.75.12,15.58.12,23.72Z"/><path d="M673.57,35l-2.21-6.63c6.88-3.32,13.77-4,20.83-1.54a10.39,10.39,0,0,1,7.25,9.85c.34,7.59.1,15.21.1,23.2-3.49-.5-7.34,2.27-9.65-2.36-7.64,4.09-14.12,4.17-18.42.08-3.57-3.38-4.42-7.75-2.22-11.87C674,36.88,682.32,39.13,690,40,689.31,33.45,687.54,32.91,673.57,35Zm12,9.12c-4,1-7.4,1.09-7.68,5.42-.23,3.51,2.42,4.38,5.26,4.44,4.12.09,7.93-2.75,7.11-5.74C689.83,46.51,687.23,45.42,685.6,44.07Z"/><path d="M1012.05,301.17c1.71,7.56,7.52,8.76,16.26,3.63l5,4.36a18.09,18.09,0,0,1-23.59,3.9c-7.29-4.49-10.08-14.57-6.38-23,3.44-7.81,11.81-11.6,20.36-9.22,8,2.24,12.38,9.92,11,20.32Zm13.58-6.25c-.82-4.24-2.62-6.88-6.84-6.89s-6.5,2.44-7.21,6.89Z"/><path d="M528.31,304.77l5,4.37a18,18,0,0,1-23.54,3.94c-7.3-4.4-10.12-14.45-6.44-22.95,3.32-7.65,11.48-11.52,19.84-9.4s12.86,9.72,11.59,20.41H512.07C513.75,308.74,519.56,310,528.31,304.77Zm-16.68-9.93h14c-.9-4.43-2.91-7-7.36-6.81C514.17,288.25,512.17,290.68,511.63,294.84Z"/><path d="M617.66,301.33H595.09c1.69,7.42,7.38,8.6,16.2,3.48l5,4.33a18,18,0,0,1-23.59,3.93c-7.23-4.35-10.06-14.57-6.37-23,3.41-7.8,11.8-11.6,20.34-9.21C614.72,283.13,619,290.75,617.66,301.33Zm-23.13-6.43h14.13c-.85-4.08-2.52-6.8-6.76-6.87S595.37,290.34,594.53,294.9Z"/><path d="M852.71,46.31H830.13c1.58,7.4,7.46,8.64,16.18,3.49l4.9,4.39a18,18,0,0,1-23.52,3.88c-7.32-4.49-10.08-14.43-6.39-23,3.31-7.64,11.45-11.48,19.84-9.36S854,35.37,852.71,46.31Zm-9.1-6.38c-.86-4.59-2.94-7.16-7.37-6.89-4,.26-6.14,2.59-6.58,6.89Z"/><path d="M624.17,24.32c0-2.46,0-4.08,0-5.71,0-.95.2-1.91.34-3.13h36.26V24h-12.9V59.68h-10V24.32Z"/><path d="M553,289.26c-6.83-.07-3.27-4.77-4.31-7.88,6.9-.3,3.21-5.86,4.81-9.13h9c.19,2.73.36,5.32.57,8.28l7.32.54v7.65l-7.58.55c0,5-.21,9.76.06,14.53.29,5.1,4.37,2.42,7.18,3,.13,3.35,2.17,7.27-3.64,8.34-7.64,1.39-12.58-1.11-13.3-7.38a93.84,93.84,0,0,1-.14-10.48C553,294.82,553,292.33,553,289.26Z"/><path d="M845.49,281.07h9.28c.14,1.6.27,3.06.35,4.07l10.66-6.48v11.08c-15.48,2.84-9.17,15.45-11.17,24.86h-9.12Z"/><path d="M878.47,59.84h-8.89V26.19h9.12c.16,1.43.33,3,.45,4l10.48-6.64V34.82C874.12,37.63,880.79,50.44,878.47,59.84Z"/><path d="M928.36,69.44V63c4.71-.18,5.63-2.92,5.53-7-.24-9.8-.08-19.61-.08-29.78h9.34c0,12.29.41,24.42-.16,36.49C942.69,69.07,936.61,71.57,928.36,69.44Z"/><path d="M890.13,314.77h-9V281.14h9Z"/><path d="M905.15,26.11h9V59.6h-9Z"/><path d="M933.91,13.47h9.49V21.6h-9.49Z"/><path d="M914.45,21.82H905V13.61h9.47Z"/><path d="M880.86,276.73v-8.25h9.68v8.25Z"/><path d="M508.78,239h27C526.78,241.73,517.79,241.45,508.78,239Z"/><path d="M816.85,238.93h26.88v1.22h-27C816.76,239.75,816.8,239.34,816.85,238.93Z"/><path d="M1104.44,239h27v1.14h-27C1104.45,239.71,1104.44,239.33,1104.44,239Z"/><path class="a" d="M361.36,135.52c9.36.52,18.12.13,26.52,1.67,17.66,3.24,26.73,16.26,26.1,35.73-.52,16.29-11.69,28.74-28.39,30.89-6.9.88-13.94.74-20.92.71-1.11,0-3.16-2-3.17-3C361.32,179.91,361.36,158.3,361.36,135.52Z"/><path class="a" d="M1132,176.63h-34.68c.42-10.76,8.1-18.61,17.84-18.45C1124.57,158.34,1131.83,166.09,1132,176.63Z"/><path class="a" d="M844.63,176.61h-35.1c1.2-11.27,8.44-18.65,17.91-18.47S844,165.71,844.63,176.61Z"/><path class="a" d="M536.67,176.68H502.08c-.31-9.72,7.58-18.34,16.8-18.55C528.65,157.91,536.29,165.7,536.67,176.68Z"/><path class="a" d="M732.43,304.22c-4.28,3.6-7.63,4.27-10.81,2.16a6.45,6.45,0,0,1-2.28-4.89,6.14,6.14,0,0,1,2.88-4.18c.69-.4,2.65,1.1,3.88,2C728.11,300.7,730,302.3,732.43,304.22Z"/><path class="a" d="M726.2,287.15c-2.44-3.25-4-6.51-.25-9.09,1.13-.78,4.68.12,5.67,1.38C733.72,282.14,731.49,285.16,726.2,287.15Z"/><path class="a" d="M818.17,297.74c.05,5.44-3.29,9.39-8.06,9.52s-8.74-4.18-8.66-9.55c.09-5.19,3.91-9.44,8.42-9.37C814.59,288.41,818.12,292.41,818.17,297.74Z"/><path class="a" d="M726,43c0-5.36,3.39-9.51,8-9.68s8.57,4.18,8.5,9.69-3.42,9.25-8.27,9.26S726,48.46,726,43Z"/><path class="a" d="M786.62,52.18c-4.85-.31-8.06-4.67-7.61-10.32.41-5,4.23-8.8,8.63-8.56,4.69.25,8.27,4.91,7.91,10.31S791.61,52.5,786.62,52.18Z"/><path class="a" d="M685.6,44.07c1.63,1.35,4.23,2.44,4.69,4.12.82,3-3,5.83-7.11,5.74-2.84-.06-5.49-.93-5.26-4.44C678.2,45.16,681.64,45.12,685.6,44.07Z"/><path class="a" d="M1025.63,294.92h-14.05c.71-4.45,2.89-6.9,7.21-6.89S1024.81,290.68,1025.63,294.92Z"/><path class="a" d="M511.63,294.84c.54-4.16,2.54-6.59,6.63-6.81,4.45-.24,6.46,2.38,7.36,6.81Z"/><path class="a" d="M594.53,294.9c.84-4.56,3.05-6.94,7.37-6.87s5.91,2.79,6.76,6.87Z"/><path class="a" d="M843.61,39.93h-14c.44-4.3,2.56-6.63,6.58-6.89C840.67,32.77,842.75,35.34,843.61,39.93Z"/></svg>