<?xml version="1.0" encoding="utf-8"?>
<!-- Generator: Adobe Illustrator 26.0.0, SVG Export Plug-In . SVG Version: 6.00 Build 0)  -->
<svg version="1.1" id="Layer_1" xmlns="http://www.w3.org/2000/svg" xmlns:xlink="http://www.w3.org/1999/xlink" x="0px" y="0px"
	 viewBox="0 0 690.8 690.3" style="enable-background:new 0 0 690.8 690.3;" xml:space="preserve">
<style type="text/css">
	.st0{fill:#090506;}
	.st1{fill:#030303;}
	.st2{fill:#020202;}
	.st3{fill:#040404;}
	.st4{fill:#101010;}
	.st5{fill:#8D8D8D;}
	.st6{fill:#140302;}
	.st7{fill:#D7AE52;}
	.st8{fill:#24A9E0;}
	.st9{fill:#FEFEFE;}
	.st10{fill:#DBB056;}
	.st11{fill:#34A0CD;}
	.st12{fill:#3A9DC7;}
	.st13{fill:#D7AB52;}
	.st14{fill:#4991B6;}
	.st15{fill:#DCB157;}
	.st16{fill:#DAB053;}
	.st17{fill:#F5F6F5;}
	.st18{fill:#4496BA;}
	.st19{fill:#4A9EC3;}
	.st20{fill:#4A9BC6;}
	.st21{fill:#4793B5;}
	.st22{fill:#4887A6;}
	.st23{fill:#B49767;}
	.st24{fill:#E3E3E3;}
	.st25{fill:#F5F5F5;}
	.st26{fill:#F2F2F2;}
	.st27{fill:#ACACAC;}
	.st28{fill:#F0F0F0;}
	.st29{fill:#EFEFEF;}
	.st30{fill:#F8F8F8;}
	.st31{fill:#F9F9F9;}
	.st32{fill:#ECECEC;}
	.st33{fill:#F4F4F4;}
	.st34{fill:#7A7A7A;}
	.st35{fill:#C6C6C6;}
	.st36{fill:#7C282A;}
	.st37{fill:#8A2D32;}
	.st38{fill:#8B2C31;}
	.st39{fill:#DBB258;}
	.st40{fill:#F5B323;}
	.st41{fill:#23A9E0;}
	.st42{fill:#24A9E1;}
	.st43{fill:#23A9E1;}
	.st44{fill:#F4B524;}
	.st45{fill:#1F1F1F;}
	.st46{fill:#BA2025;}
	.st47{fill:#BB2023;}
	.st48{fill:#C2C2C2;}
</style>
<g>
	<path class="st0" d="M264.2,272.9c-8.1-0.5-15.3-1-22.5-1.4c-44.5-2.7-89-5.4-133.5-8.1c-4.1-0.2-8.2-0.6-12.3-0.7
		c-2.1-0.1-2.9-0.8-2.8-2.9c0.1-4.2,0-8.5,0-12.7c0-37.2,0.1-74.5-0.1-111.7c0-3.4,1-4.1,4.2-4.1c141.2,0.1,282.4,0.1,423.7,0.1
		c9.2,0,18.5,0,27.7-0.1c2.2,0,4.1,0.4,6,1.6c8.5,5.3,17,10.5,25.6,15.6c2.1,1.2,2.8,2.7,2.8,5.1c-0.1,27.6-0.1,55.2,0,82.9
		c0,4.4,0,4.4,4.2,3.4c10.4-2.5,18.4,0.7,22,8.7c5.4,12,2.7,26.4-7.7,34.4c-20.9,15.8-33.6,37.2-43.8,60.6
		c-3.6,8.4-6.8,16.9-9.8,25.5c-0.7,2.2-0.5,2.8,1.9,2.7c11-0.1,22,0,33-0.1c3.1,0,4.4,0.6,4.3,4.1c-0.2,36.4-0.2,72.7-0.1,109.1
		c0,2.5-0.9,3.8-3,5c-9.3,5.3-18.6,10.7-27.8,16.3c-3.2,2-6.5,2.7-10.3,2.7c-49.6-0.1-99.2,0-148.8,0c-99.7,0-199.5,0-299.2,0
		c-5.9,0-4.9,0.4-4.9-5c0-37.6,0-75.2-0.1-112.9c0-3.7,0.9-6,4.2-8.2c32.6-21.1,65-42.4,97.4-63.7c22.3-14.6,44.7-29.2,67-43.9
		C262.3,274.6,262.8,274.1,264.2,272.9z"/>
	<path class="st1" d="M331.4,542.9c1.4-7.5,2.9-14.9,4-22.4c0.4-2.8,1.6-3.3,4.1-3.3c8.1,0,8.1-0.1,8.1,8.2c0,10.5-0.3,21,0.1,31.5
		c0.2,4.3-1.6,4.3-4.9,4.5c-3.7,0.2-4-1.4-3.9-4.3c0.2-6,0.1-12-0.5-18c-1.1,5.8-2.1,11.7-3.2,17.5c-0.5,2.5-0.2,4.9-4.3,4.9
		c-3.9,0-3.6-2.3-4.1-4.7c-1.1-5.8-2.3-11.6-3.9-17.3c0,6.3-0.1,12.6,0.1,18.9c0.1,2.3-0.7,3-3,3c-5.7,0-5.7,0.1-5.7-5.5
		c0-11.7,0.1-23.5-0.1-35.2c0-2.5,0.6-3.5,3.3-3.5c8.1,0,8.1-0.1,9.6,8c1.2,6,2.3,11.9,3.4,17.9C331,542.9,331.2,542.9,331.4,542.9z
		"/>
	<path class="st2" d="M352.8,538.9c0-6.4,0.1-12.7,0-19.1c0-2.1,0.7-2.8,2.8-2.7c3.7,0.2,7.5,0,11.2,0.1c9.9,0.3,14.7,8.5,9.8,17.2
		c-1.1,2-1.3,3,0.2,5c3.7,4.9,3.3,10.6,1,16c-2,4.8-6.4,5.8-11.2,5.8c-3.5,0-7-0.2-10.5,0.1c-3,0.2-3.5-0.9-3.4-3.6
		C352.9,551.4,352.8,545.2,352.8,538.9z"/>
	<path class="st2" d="M252.1,539.3c0-6.4,0.2-12.7-0.1-19.1c-0.1-2.7,0.9-3.1,3.2-3.1c3.6,0.1,7.2,0,10.9,0.1
		c10.2,0.3,14.9,8.5,9.8,17.4c-1.1,2-1.1,2.8,0.3,4.7c3.7,5,3.3,10.6,1.1,16c-2.1,5.1-6.6,5.9-11.4,5.9c-3.6,0-7.2-0.1-10.9,0
		c-2.2,0.1-3-0.5-3-2.9C252.2,552,252,545.6,252.1,539.3z"/>
	<path class="st3" d="M439.7,560.7c-0.4,0.2-0.5,0.3-0.6,0.3c-9.4,1-9.4,1-9.6-8.2c-0.1-5.1-1.1-6.4-5-6.7c-2.2-0.1-3.2,0.4-3.1,2.8
		c0.2,3.1-0.1,6.2,0.1,9.4c0.2,2.3-0.6,3-2.9,3c-6.5,0-6.6,0.1-6.6-6.3c0-11.5,0.1-23-0.1-34.4c0-2.6,0.7-3.5,3.4-3.4
		c4.4,0.2,8.8-0.1,13.1,0.3c6.8,0.6,10,4.1,10.3,11c0.2,4.2-0.2,8.3-3.5,11.4c-0.9,0.8-0.8,1.4,0.2,2c3.1,2.1,3.1,5.5,3.3,8.7
		C438.9,554,438.1,557.5,439.7,560.7z"/>
	<path class="st2" d="M545.6,560.8c-0.3,0.1-0.6,0.3-0.8,0.3c-11.1-0.1-8.8,2-9.2-8.3c-0.3-5.4-1.1-6.6-5.3-6.7
		c-1.9,0-2.7,0.5-2.7,2.5c0.1,3.2-0.1,6.5,0.1,9.7c0.1,2-0.4,2.8-2.6,2.9c-6.8,0.1-6.8,0.2-6.8-6.5c0-11.5,0.1-23,0-34.5
		c0-2.5,0.7-3.3,3.2-3.1c3.7,0.2,7.5-0.1,11.2,0.1c4.6,0.2,9.3,1.1,11.1,6.1c1.9,5.2,2.1,10.7-1.5,15.3c-1.6,2-1.5,2.7,0.3,4.2
		c2.3,1.9,2.1,5,2.2,7.7C544.9,553.9,544.3,557.4,545.6,560.8z"/>
	<path class="st1" d="M443.2,539c0-6.2,0.1-12.5-0.1-18.7c-0.1-2.5,0.8-3.3,3.2-3.2c2.6,0.2,5.2,0,7.9,0c9.1,0,14,3.7,15.9,12.6
		c1.6,7.7,1.6,15.4-1.3,22.8c-2.2,5.6-6.3,8.5-12.4,8.6c-3.4,0-6.7-0.1-10.1,0.1c-2.4,0.1-3.2-0.5-3.2-3.1
		C443.4,551.8,443.2,545.4,443.2,539z"/>
	<path class="st2" d="M179,539.2c0-6.4,0.1-12.7-0.1-19.1c0-2.3,0.7-3.1,3-3c2.7,0.2,5.5,0,8.2,0.1c8.5,0.1,13.4,3.5,15.5,11.8
		c1.9,7.4,1.8,14.9-0.6,22.1c-2.3,7.1-6.5,10-13.9,10.1c-3.1,0-6.2-0.2-9.4,0c-2.4,0.2-2.9-0.8-2.8-3
		C179.1,551.9,179,545.5,179,539.2z"/>
	<path class="st1" d="M308.9,552.7c-4,8.4-10.5,11.6-17.6,8.8c-5.1-2-7.7-6.3-9-11.2c-2.2-8.1-2.3-16.2,0.9-24.2
		c2.6-6.5,7.3-9.9,13.1-9.9c6.7,0.1,10.2,4.4,12.7,9.9c2.4,5.4,2.5,11.1,2.2,16.9C310.7,546.3,310.7,549.7,308.9,552.7z"/>
	<path class="st2" d="M489.6,539.1c0-6.2,0.1-12.5-0.1-18.7c-0.1-2.4,0.5-3.3,3.1-3.3c5.9,0.2,11.7,0.1,17.6,0
		c2.2,0,3.1,0.4,3.1,2.9c0,7.9,0.2,7.9-7.8,7.9c-1.1,0-2.3,0.1-3.4,0c-2.6-0.3-3.1,1-3.1,3.3c0,2.5,1.2,3,3.3,2.7c0.4,0,0.7,0,1.1,0
		c8,0,8,0,7.6,8c-0.1,1.9-0.7,2.7-2.6,2.6c-1.9-0.1-3.8,0.1-5.6-0.1c-2.5-0.2-3.9,0.2-3.8,3.3c0,3.1,1.7,3,3.8,2.9
		c1.1-0.1,2.2,0,3.4,0c7.9,0,7.8,0,7.6,8.1c-0.1,2.1-0.8,2.5-2.6,2.4c-6.4-0.1-12.7-0.1-19.1,0c-2,0-2.5-0.7-2.5-2.6
		C489.6,552.1,489.6,545.6,489.6,539.1z"/>
	<path class="st3" d="M214.2,547.7c1.7-0.1,4-0.4,5,2.8c0.6,1.9,2.7,2,4.5,1.6c1.4-0.3,2.2-1.3,2.3-2.6c0.3-2-1.1-2.9-2.6-3.7
		c-1.7-0.8-3.4-1.5-5.1-2.2c-8.5-3.7-11.7-14.4-6.5-22.3c2.9-4.5,8.6-6.3,14.2-4.6c4.2,1.3,8.3,7,8.2,11.5c0,0.6,0,1.2-0.6,1.6
		c-1.5,1-7.8-0.1-8.8-1.6c-1-1.6-2.3-2.2-4.1-1.8c-1.1,0.2-1.8,0.9-2,2c-0.2,2,1.1,2.9,2.6,3.6c2,0.9,4.1,1.7,6.2,2.7
		c6.1,2.8,8.5,7.9,7.6,15.5c-0.9,6.8-4.6,10.9-10.9,12.1c-7.5,1.4-15.3-5.2-15.2-12.8C209,547.7,209,547.7,214.2,547.7z"/>
	<path class="st1" d="M118.8,530c-2.7,0.3-4.7,0.4-6-2.3c-0.7-1.5-2.5-1.5-4-1.1c-0.9,0.2-1.5,0.9-1.6,1.9c-0.2,1.6,0.7,2.6,2,3.3
		c2.4,1.1,4.8,2.1,7.2,3.2c6.6,3.3,8.8,9.3,6.8,17.5c-1.5,6.2-6.4,10-12.7,10c-6.6,0-12.8-6-12.9-12.6c0-0.6,0-1.3,0.3-1.7
		c1-1.2,8.2-0.4,8.9,1c0.7,1.4,1.5,2.7,3.1,3c1.8,0.4,3.6,0.2,4.5-1.8c1-2-0.1-3.4-1.8-4.2c-2.6-1.3-5.3-2.2-7.8-3.6
		c-6-3.1-8.4-10.5-6-18c1.9-5.9,6.8-9,13.3-8.4c5.7,0.5,11,6.4,10.7,12.1C122.5,531.7,119.7,529.2,118.8,530z"/>
	<path class="st1" d="M403.9,561.2c-2.7,0.7-4.7-0.3-4.7-4c0-1.4-0.9-1.9-2.3-1.9c-1.9,0.1-3.7,0.1-5.6,0c-1.3,0-2.3,0.4-2.2,1.8
		c0.4,4.9-3,3.8-5.9,4.1c-3.4,0.3-4.2-0.6-3.3-4.1c3.2-12.4,6-24.9,8.8-37.5c0.5-2,1.3-2.5,3.3-2.6c6.9-0.1,6.9-0.2,8.5,6.4
		c2.6,10.9,5.1,21.8,7.8,32.7C409.5,561.2,409.6,561.2,403.9,561.2z"/>
	<path class="st1" d="M160.7,517.4c4.3-1.3,5.5,1,6.4,4.8c2.5,11.8,5.4,23.6,8.3,35.3c0.7,2.8,0.4,4.2-2.9,3.7
		c-1.1-0.2-2.3-0.1-3.4,0c-1.9,0.2-2.8-0.5-2.8-2.4c0-2.9-1.5-3.9-4.3-3.5c-1.1,0.2-2.2,0.1-3.4,0c-1.8-0.2-2.9,0.4-2.9,2.4
		c0,3.1-1.6,3.7-4.5,3.6c-5.4-0.2-5.5-0.1-4.2-5.3c2.7-11.4,5.5-22.8,8-34.3C155.7,518.4,156.6,516,160.7,517.4z"/>
	<path class="st1" d="M133.5,545.3c0-4.2-0.1-8.5,0-12.7c0.1-2.5-0.7-3.5-3.2-3.1c-1.1,0.2-2.2,0-3.4,0c-1.4,0.1-2.1-0.5-2.1-1.9
		c0-0.4,0-0.7,0-1.1c-0.3-9.3-0.3-9.3,8.9-9.3c5,0,10,0.1,15,0c2.1-0.1,3,0.7,2.7,2.8c-0.1,1,0,2,0,3c0,6.2,0,6.4-6,6.5
		c-2.4,0.1-2.5,1.3-2.5,3.1c0,8.4-0.1,16.7,0.1,25.1c0.1,3-0.8,4.1-3.7,3.6c-0.1,0-0.2,0-0.4,0c-5.6,0-5.6,0-5.6-5.4
		c0-0.9,0-1.7,0-2.6C133.5,550.5,133.5,547.9,133.5,545.3z"/>
	<path class="st3" d="M474.3,538.9c0-6.2,0.1-12.5-0.1-18.7c-0.1-2.2,0.5-3,2.8-3.1c6.8-0.1,6.8-0.2,6.8,6.6
		c0,11.4-0.1,22.7,0.1,34.1c0,2.5-0.5,3.5-3.2,3.4c-6.4-0.1-6.4,0-6.4-6.2C474.2,549.7,474.2,544.3,474.3,538.9
		C474.3,538.9,474.3,538.9,474.3,538.9z"/>
	<path class="st4" d="M547.3,525.6c0.1-6.2,4.6-10.8,10.5-10.8c6.1,0.1,10.4,4.6,10.3,10.9c0,6-4.8,10.8-10.7,10.7
		C551.9,536.3,547.2,531.3,547.3,525.6z"/>
	<path class="st5" d="M308.9,552.7c0.8-3.2,1.5-6.5,2.3-9.7C311.6,546.5,311.3,549.9,308.9,552.7z"/>
	<path class="st6" d="M387.7,356.1c-2.7,4.2-6.6,7-11.1,8.7c-2.6,1-4.6,2.7-7.2,4c1.8,2.9,4.7,2.2,7.2,2c2.1-0.2,4.1-0.6,6.1,0.8
		c0.7,0.5,2,0.6,2.9,0.4c10-1.9,19.8,1,29.6,1.3c2.5,0.1,5-0.1,7.4-0.8c4-1.3,8.1-1.2,12.2-1.2c9.8,0,12.9,3.4,11.3,13.1
		c-0.5,3-0.1,3.2,2.7,2.8c3.3-0.5,6.7-0.1,10.1-0.1c0.7,0,1.5,0.2,2.2,0.4c0.9,0.2,1.2,2.6,2.5,1.1c0.9-1-0.4-2-0.8-3
		c-3.3-7.7-7.5-15.2-9.7-23.2c-1.3-4.7-2.8-9.7-2.6-15.1c0.2-4.3-0.2-8.5,1.4-12.7c1.7-4.4,8.7-9.1,13.3-8.6
		c3.9,0.4,8.3-0.3,11.5,3.2c3.1,3.3,5.4,7,6.2,11.4c0.6,3.4,2.4,6.6,2.3,10.1c-0.2,7,2.1,13.3,4.2,19.8c1.4,4.3,1.2,9.1,1.9,13.6
		c0.4,2.5,0.4,5.6,4.5,3.8c2.6,4.5,4.5,4.5,8.6,0.1c2,2.4,3.5,1,3.8-1c1.1-5.6,4.3-10.4,4.1-16.5c-0.1-3.6,3-6.7,3.9-10.3
		c2.6-9.7,6.1-19.1,11.1-27.9c2-3.6,2.8-7.9,4.7-11.5c4.9-9.2,8.3-19.1,14.8-27.5c1.7-2.2,3.1-5.1,3.5-8.1c0.2-2,2-2.8,2.8-4.2
		c2.5-5.1,5.3-10.1,8-15.1c3.6-6.5,7.2-13.5,13.8-17.2c4-2.2,7-7.1,12.6-6.1c3.3,0.6,6.6,0.4,9.9-0.1c3.4-0.5,7.7,3.9,9.2,7
		c2.1,4.3,1.2,8.7,1.6,13c0.8,9.1-3.5,15.6-10.5,20.4c-3.7,2.6-6.8,5.8-9.9,8.9c-6.7,6.7-13.1,13.7-17.9,22
		c-5.7,9.8-10.1,20.2-15,30.4c-4.2,8.7-5.9,18.3-11,26.7c-2.3,3.7-2.8,8.9-3.9,13.5c-0.5,1.9,0.1,3.5,2.8,2.8
		c0.5-0.2,2.3-0.9,1.6,1.2c-0.2,0.8-0.9,1-1.5,1.3c-1.9,1.4-1.7,3.6-2.3,5.5c-4,12.3-7.8,24.7-10.9,37.3c-1.5,5.9-2.6,11.9-4.5,17.7
		c-4.6,13.7-20.3,15.1-29.5,9.8c-4.2-2.4-6.4-6.9-8.4-11.2c-5.4-11.9-10.7-23.9-16.4-35.7c-0.3-0.7-0.8-1.3-1.2-1.9
		c-2.5-4.7-4-9.9-6.2-14.8c-3.4-7.5-6.3-9.2-14.3-7.4c-0.6,0.1-1.2,0.4-1.7,0.8c-6,4.8-13.3,5.3-20.4,6.6
		c-7.6,1.3-15.3,1.6-23.1,1.6c-12.4-0.1-24.7,0-37.1,0c-1.8,0-3.6-0.1-3.6,2.5c0,7.7-1.3,15.4-1.5,23.1c-0.1,3.5,1.5,4.7,4.4,5.1
		c0.5,0.1,1,0.1,1.5,0.1c11.3-0.3,22.7,1.2,34,0.8c11.2-0.4,22.4,0.5,33.6,0.9c8.4,0.3,16.9,1.6,24.5,5.8c1.4,0.8,2.9,1.5,4.1,2.6
		c5.7,4.7,5.9,11,4.7,17.5c-0.9,5.1-4.5,8.2-9.4,9.7c-5.1,1.5-10.4,1.3-15.6,0.4c-15-2.7-30-4.8-45.2-5.7
		c-6.2-0.4-12.4-1.4-18.6-1.3c-10,0.2-19.9,0.7-29.8,2c-9.2,1.2-17.1-1.8-20.6-8.3c-2.3-4.2-3-8.7-2.6-13.4
		c0.6-7.3,1.3-14.7,2.4-21.9c1-6,1.5-12.1,1.8-18.2c0.7-14.2,2.2-28.4,1.7-42.6c-0.4-10.7-2.9-21-4.9-31.4c-0.4-1.8-0.9-3.6-1.2-5.5
		c-1.8-9.7,3.5-16.2,13.6-16.6c2.7-0.1,5.2,0.8,7.8,0.7c8.4-0.1,16.6-1.9,24.8-3.3c17.4-2.9,34.9-6,52.3-9.4
		c5.4-1,10.7-2.7,15.4-5.6c8.8-5.5,22.3,0.9,23.3,12.7c0.1,0.7,0.1,1.5,0.1,2.2c0.1,2.1,1,2.6,2.9,1.5c3.7-2.3,7.2-4.9,11-7.1
		c1.4-0.8,2.7-1.9,4.5-1.4c-0.1,1.6-0.6,3.3-2.1,3.7c-5.2,1.4-8.6,5.4-13.1,7.9c-1.3,0.7-3.3,2.1-5,0c-1-1.3-1.8,0.2-1.9,0.7
		c-0.3,5.9-4.6,7.2-9.2,8.4c-3.6,1-7.7,1.6-9,6.2c0,0.1-0.7,0.1-1.1,0.2c-5.4,0.4-10.7,2-16,2.9c-11.7,2-23.3,4.4-34.9,6.6
		c-1.2,0.2-2.4,0.6-3.7,0.2c-1.1-0.3-1-1.5-1.9-2.8c-0.2,1.7,1.5,1.9,1,2.9c-2.9,1.9-6.4,1.8-9.6,2.5c-3.5,0.7-7.1,1.3-10.6,2.1
		c-1.4,0.3-2.8,0.9-2.5,2.7c1.5,7.7-0.8,15.4-0.2,23.1c0.1,1.7-0.9,4.2,1.4,4.9c2.2,0.7,4.6,0.8,6.8-0.6c4.2-2.7,8.3-5.5,12.5-8.1
		C384.6,356.5,385.9,355.3,387.7,356.1z"/>
	<path class="st7" d="M482.2,294c-5.4,3.4-10.7,6.8-16.1,10.2c-3.1,2-3.5,1.9-3.4-1.9c0.1-7.1-2.1-12.7-8.8-15.9
		c-3.4-1.6-7.3-2.3-10.5-0.4c-10.8,6.4-22.9,7.5-34.8,9.7c-18.2,3.4-36.3,6.7-54.6,9.2c-3.2,0.4-6.5,0.5-9.7,0.1
		c-2.5-0.3-5-0.4-7.5,0.2c-7.5,1.6-10.9,6.9-9.4,14.4c2.5,11.7,5.3,23.4,6.2,35.4c1.1,15.5-0.8,30.9-1.9,46.4
		c-0.9,12.3-2.5,24.6-3.7,36.9c-0.2,2.2-0.2,4.5,0,6.7c1,10.2,6.8,15.7,17,15.5c7.5-0.1,15-0.8,22.4-1.3c19.6-1.4,38.9,1.1,58.2,3.5
		c7.7,1,15.3,2.2,22.9,3.4c2.8,0.4,5.5,0.1,8.2-0.4c10.5-1.9,15.3-14.5,8.9-23.1c-0.7-1-1.6-1.9-2.4-2.8c1.2-1,2.5-0.5,3.7,0
		c9.1,8.6,4.2,24.9-5.9,27.8c-4.7,1.3-9.2,2.3-14,1.4c-15.1-2.7-30.4-4.5-45.7-5.9c-14.8-1.4-29.7-1.6-44.5,0
		c-5.4,0.6-10.8,0.7-16.1,0.1c-7.2-0.8-12-5.2-14.5-11.9c-2.1-5.9-1.8-12.1-1-18.2c2.5-19.5,3.5-39,5.2-58.6
		c1.5-16.9-1.7-33.1-5-49.4c-0.5-2.2-1-4.4-1.4-6.6c-1.2-7.5,3.2-14,10.5-15.8c1.6-0.4,3.2-0.7,4.8-0.6c15.5,0.9,30.5-2.9,45.7-5.2
		c11.1-1.7,22-4.5,33.2-6c7.1-1,13.8-3.5,20.3-6.2c6.4-2.6,12.7-3.6,19,0.4c3.9,2.5,6.2,6.1,7.4,10.4c1,3.7,2.2,4.3,5.4,2.1
		c13.1-8.8,26.2-17.4,39.5-25.9c8.9-5.6,17.1-12.2,26.3-17.3c4.6-2.5,6.4-6,6.4-11.5c-0.3-32-0.1-64-0.1-96c0-1.4,0-2.7-0.1-4.1
		c-0.1-2.3-1.3-3.4-3.6-3.5c-1.4-0.1-2.7-0.1-4.1-0.1c-141.9,0-283.9,0-425.8,0c-8,0-8,0-8,8.1c0,30.9,0,61.7,0,92.6
		c0,1.4,0,2.8,0,4.1c0.2,3.7,0.8,4.3,4.5,4.5c1.5,0.1,3,0,4.5,0c62.1,0,124.2,0,186.3,0c1.9,0,3.8-0.1,5.6,0.2c2,0.3,4,0.8,4.6,3.2
		c-0.7,2.6-2.1,4-4.9,3c0.9-0.8,1.7-1.6,2.7-2.6c-1.4-1-2.8-0.5-4.1-0.5c-65.7,0-131.5,0-197.2,0c-5.1,0-5.1,0-5.1-5
		c0-35.4,0-70.7-0.1-106.1c0-3.7,0.9-4.8,4.7-4.8c63.2,0.1,126.4,0.1,189.7,0.1c53.6,0,107.2,0,160.8,0c29.6,0,59.2,0.1,88.8-0.1
		c3.4,0,4.1,1,4.1,4.2c-0.1,35.4-0.1,70.7,0.1,106.1c0,4.2-1.3,6.5-4.7,8.7c-19.5,12.6-38.8,25.4-58.2,38.2
		C482.7,293.4,482.5,293.7,482.2,294z"/>
	<path class="st8" d="M551.2,194.7c0-17.7,0.1-35.5,0-53.2c0-3.2,0.7-3.8,3.4-2c6.8,4.2,13.6,8.3,20.4,12.4c1.9,1.1,2.4,2.6,2.4,4.6
		c0,28.1,0,56.2,0,84.3c0,1.7-0.3,3.1-1.9,4.1c-3.4,2.1-6.3,4.9-8.8,8c-1.3,1.6-2.7,1.8-4.6,1.5c-10.9-2-10.9-1.9-10.9-12.9
		C551.2,225.9,551.2,210.3,551.2,194.7z"/>
	<path class="st9" d="M545.7,289.2c-3.7,7.1-7.5,14-11.1,21.1c-9.6,18.9-18,38.4-23.9,58.9c-0.6,2.1-1.6,2.7-3.7,2.6
		c-4-0.1-8-0.2-12,0c-2.5,0.1-3.4-0.7-3.9-3.2c-1.6-9-3.4-17.9-5.3-26.8c-0.4-2.1-0.9-4.3-2-6c-2.4-3.8-0.6-5.5,2.4-7.6
		c19-12.6,37.9-25.4,56.8-38.2C543.8,289.6,544.4,288.8,545.7,289.2z"/>
	<path class="st10" d="M471,411.2c5.2,9.8,9.3,20.1,14.1,30c2.1,4.4,3.8,8.9,6.4,13.1c2.8,4.3,6.7,6.7,11.6,7.2
		c12.9,1.3,18.7-3.2,21.4-12.7c2.9-10.2,5.2-20.5,8.1-30.7c2.2-7.9,4.4-15.8,7.4-23.5c1-1.9,1.3-4,2.2-5.9c0.8-0.1,1.5-0.2,2.3-0.4
		c0.3,0.1,0.5,0.3,0.8,0.4c0.6,1,0.3,2.2,0.3,3.3c0,36,0,71.9,0,107.9c0,1.1,0.3,2.3-0.3,3.3l-0.1,0.1c-1.3,0.7-2.7,0.3-4,0.3
		c-145.9,0-291.8,0-437.7,0c-5.6,0-5,0.2-5-5.1c0-34.9,0-69.7,0-104.6c0-1.8-0.6-3.7-0.1-5.5c2.4-2.8,5.9-3.9,8.7-6
		c0.9-0.3,1.8-0.6,2.7,0.1c-0.2,2.9-2.8,3.7-4.7,4.8c-2.9,1.8-4,4.1-4,7.4c0.1,33.6,0,67.2,0.1,100.8c0,5.3,0.7,5.9,5.9,5.3
		c2.7-0.3,5.5-0.3,8.2-0.3c139.5,0,279.1,0,418.6,0c8.8,0,8.8,0,8.8-8.9c0-29.6,0-59.2,0-88.8c0-1.3,0.1-2.7-0.4-4.8
		c-3,8-5.1,15.4-7.1,22.8c-2.5,9-4.3,18.2-7.1,27.2c-0.9,2.9-2.1,5.6-3.5,8.3c-2.7,5.1-7.5,6.9-12.9,7.9c-10.2,2-19.7-1.5-24.2-10.7
		c-6.4-12.8-12.5-25.8-17.5-39.3C469.7,413.1,470,412,471,411.2z"/>
	<path class="st11" d="M109,257.6c58,0,116,0,174.7,0c-9.2,7.4-18.4,10.9-30,9.6c-16-1.9-32.1-2.2-48.2-3.2
		c-25.9-1.6-51.8-3.1-77.7-4.6c-6.3-0.4-12.7-1-19-1.5C108.9,257.8,109,257.7,109,257.6z"/>
	<path class="st12" d="M536.1,266.7c0.2-0.2,0.3-0.3,0.5-0.5c2-0.5,3.4-1.9,5.1-2.9c1-0.6,1.9-1.6,3.3-1c0.8,2.2-1.2,2.7-2.4,3.6
		c-10.1,7.1-20.6,13.7-30.9,20.5c-15,9.8-29.9,20-45.1,29.5c-1.9,1.2-3.6,2.6-5.6,4.6c5.7-0.9,11-1.1,16.1,1c1.1,0.5,2.4,0.8,3,2.1
		c-0.6,2.8-2.5,1.5-3.7,0.9c-6.1-3.4-12.2-2.6-18.2,0.2c-4.6,2.1-7.8,5.6-10,10.1c-0.7,3.1-1.5,6.3-1.6,9.5
		c-0.1,2.8-1.2,4.8-3.7,6.4c-7.7,5.1-15.4,10-22.9,15.4c-0.7,0.5-1.3,1.1-2,1.6c-4.4,2.1-9,1.5-13.5,1.3c-4.8-0.1-9.6-0.4-14.5-0.7
		c-1.3-0.1-2.5-0.2-3-1.6c-0.6-1.7,0.6-2.5,1.8-3.2c1-0.6,1.8-1.3,2.6-2.1l-0.1,0c3.7-2,7.4-4,10.5-6.9l-0.1,0
		c5.1-3.2,10.4-6.1,15-10c21.4-14.1,42.7-28.1,64.1-42.2c1-0.7,2.1-1.2,3.2-1.8c5.4-2.8,10.3-6.3,15.2-9.8l-0.1,0
		c1.6-0.8,3.2-1.8,4.6-2.9c1.4-1,2.8-2.1,4.3-3.1c6.8-3.9,13.4-8.1,19.7-12.8l-0.1,0C530.9,270.8,533.6,268.8,536.1,266.7z"/>
	<path class="st13" d="M98.3,388.5c0.6,1.9,0.8,3.9,0.8,5.9c0,34.4,0,68.7,0,103.1c0,1.1,0.2,2.3-0.1,3.4c-0.5,2,0.4,2.5,2.1,2.5
		c1.1,0,2.2,0,3.4,0c146.9,0,293.8,0,440.7,0c-1.1,0.9-2.4,0.5-3.6,0.5c-146.4,0-292.8,0-439.2,0.1c-3.6,0-4.6-1-4.6-4.6
		c0.1-34.7,0-69.5,0.1-104.2C97.8,392.9,97.4,390.7,98.3,388.5z"/>
	<path class="st14" d="M552.9,444.1c0-17.4,0.1-34.7-0.1-52.1c0-3.1,1-4.8,4-5.7c7.1-2.3,14.2-4.8,21.2-7.3c2.3-0.8,3.3-0.8,3.3,2.1
		c-0.1,33.7,0,67.4,0,101.1c0,1.8-0.5,3-2.2,3.9c-7.5,4.2-14.9,8.7-22.3,13c-3.6,2.1-3.9,1.8-3.9-2.2
		C552.9,479.3,552.9,461.7,552.9,444.1z"/>
	<path class="st15" d="M385.5,330.1c10.3-1.9,20.6-3.8,30.9-5.7c7.2-1.4,14.4-2.8,21.7-4.2c0.9-0.2,2.5-1.6,2.9,0.7
		c-10.3,6.7-20.7,13.3-31,20.1c-7.5,5-15.3,9.4-22.3,15c-5.4,2.6-10.2,6.2-15.1,9.6c-3.2,2.2-6.4,1.7-9.7,1.7
		c-1.9,0-1.5-1.6-1.5-2.8c0.2-6.1,0.4-12.2,0.7-18.3c0.1-2.7,0.2-5.5-0.5-8.2c-0.6-2.1,0.2-3.1,2.4-3.6
		C371.2,333,378.5,332.3,385.5,330.1L385.5,330.1z"/>
	<path class="st16" d="M301.5,255.1c1.8-0.1,3-1.3,4.5-2.2c1.1,2.5-1,3.3-2.4,4.3c-6.4,4.5-13.2,8.5-19.7,13
		c-11.7,8.2-23.8,16-35.9,23.6c-12.9,8.1-25.2,17.1-38.2,24.9c-4.2,2.5-7.9,5.7-12.3,7.9c-1.2,0.6-2.3,1.6-3.8,0.8
		c-0.6-0.9,0.4-1.3,0.6-1.9c8.9-5.9,17.8-12,26.7-17.8c26.4-17.3,52.8-34.6,79.2-51.9C300.5,255.3,301,255.2,301.5,255.1z"/>
	<path class="st17" d="M426.9,368.4c6.7-4.5,13.3-9,20-13.5c1.3-0.9,1.6,0.1,2,1.2c1.4,4.4,2.8,8.8,4.3,13.1
		c0.6,1.8,0.3,2.6-1.7,2.5c-2.6-0.2-5.1,0-7.6-1.3c-3.6-2-7.7-1.7-11.7-1.5c-1.7,0.1-3.3,0.2-5,0.3C427.1,369,427,368.7,426.9,368.4
		z"/>
	<path class="st13" d="M194.2,325.3c-0.2,0.6-0.5,1.1-0.7,1.7c-0.3,2-1.6,3.4-3.2,4.4c-11,6.9-22,13.8-32.7,21
		c-9.5,6.4-19.2,12.6-28.7,19c-5.5,3.7-11.3,6.9-16.7,10.7c-0.8,0.6-1.7,1.2-2.7,0.3c-0.9,0-1.7-0.1-2.6-0.1
		c13.1-8.6,26.2-17.3,39.3-25.9c15.5-10.2,31.1-20.4,46.6-30.6C193.3,325.7,193.8,325.5,194.2,325.3z"/>
	<path class="st18" d="M447.7,334.6c4.1-10.7,18.5-16.1,28.1-10.8c1.2,0.6,3,2,4.1-0.4c0.1-0.1,0.2-0.3,0.3-0.4
		c7-4.1,13.6-8.8,20.2-13.5c3.2-2.2,6.7-3.9,9.8-6.2c1.5-1.1,3.1-2.2,4.2-3.7c0.4-0.4,0.8-0.7,1.3-0.9c4-1.4,7.2-4.1,10.7-6.5
		c4.3-2.9,8.6-5.7,12.9-8.7c0.6-0.4,1.3-0.6,2.1-0.4c0.4,0.1,0.6,0.3,0.8,0.7c-8.8,6.9-18.5,12.7-27.7,19.1
		c-10.7,7.5-21.8,14.6-32.6,21.9c-2.1,1.4-3.5,1.8-5.9,0.3c-9.5-5.5-21.1-1.3-27.5,9.6C448.3,335,448,335,447.7,334.6z"/>
	<path class="st19" d="M564.2,378.4c-5.8,1.5-10.9,5.1-17.2,5c-1.3,0-3.6,0.9-3.2-1.7c0.2-1.8,0.1-4.5,3.4-4.4
		c5.6,0.1,11.2,0,16.8,0C564,377.7,564.1,378,564.2,378.4z"/>
	<path class="st13" d="M545.2,503.2c0-38.2,0-76.3,0-114.5c1.1,1,0.6,2.3,0.6,3.5c0,36.1,0,72.2,0,108.3
		C545.8,501.4,546.3,502.5,545.2,503.2z"/>
	<path class="st20" d="M500,383.4c-1.4,0-2.7,0-4.1,0c-3.1-0.1-2.5-2.7-2.7-4.4c-0.4-2.4,1.7-1.6,2.8-1.7c2.9-0.1,5.7-0.1,8.6,0
		c1.2,0,3.2-0.8,3.1,1.4c-0.1,2-0.1,4.5-3.2,4.6C503,383.5,501.5,383.4,500,383.4z"/>
	<path class="st21" d="M391.4,361.4c-0.3,1.2-1.2,1.8-2.2,2.4c-0.9,0.6-2.1,1.1-1.6,2.5c0.5,1.4,1.8,1.1,2.9,1.2
		c9.2,1,18.4,1.1,27.6,0.1c-1.3,1.2-2.7,2.2-4.6,2.2c-10.4,0-20.7-0.9-31.9-1.6C384.8,364.9,388,363.1,391.4,361.4z"/>
	<path class="st22" d="M453.2,383.5c-2.4,0.4-4.5,0.1-4.5-3.8c0-3.4,2.2-2.3,3.8-2.4c3.8-0.1,5.8,1.5,5.8,4.6
		C458.3,383.4,458.1,383.5,453.2,383.5z"/>
	<path class="st21" d="M447.7,334.6c0.3,0,0.6,0,0.9,0.1c-0.8,3.9-1.9,7.8-1.7,11.8c0.1,1.6-0.9,2.6-2,3.4
		c-7.9,5.4-15.9,10.7-23.9,16c-0.3,0.2-0.7,0.1-1.1,0.2c4.7-5,11.1-7.9,16.5-11.9c1.9-1.4,3.9-2.8,5.9-3.9c2.9-1.6,3.5-4.1,3.7-6.8
		C446.4,340.3,447.1,337.5,447.7,334.6z"/>
	<path class="st18" d="M545.2,262.6c-2.1-0.2-3.3,1.4-4.9,2.3c-1.2,0.7-2.2,1.6-3.7,1.4c3.3-2.2,6.6-4.4,9.9-6.5
		c1.8-1.1,11.8,0.1,13.2,1.4c0.7,0.7,0.5,1.4,0.1,2c-1.3,2.4-2.1,5-4,7.1c-0.1-0.1-0.3-0.2-0.4-0.3c-0.6-1.6,0.2-2.9,0.9-4.2
		c1.2-2.2,0.3-3.3-1.9-3.7c-1.9-0.3-3.8-1.2-5.8-0.3C547.5,262.2,546.6,263.2,545.2,262.6z"/>
	<path class="st23" d="M504.4,388c-0.3,3.4-2.7,4.4-5.5,4c-2.1-0.2-4.2-1.2-3.2-4.1C498.7,387.9,501.6,387.9,504.4,388z"/>
	<path class="st18" d="M527.9,272.2c-2.9,4.3-7.8,6-11.9,8.6c-2.4,1.6-4.5,4.1-7.8,4.2C514.6,280.4,521,275.9,527.9,272.2z"/>
	<path class="st18" d="M555.9,270.2c-1.9,7.1-7.6,10.4-13.5,13.5c0,0-0.2-0.2-0.2-0.2c-0.2-2.3,1.7-3.2,3.2-4.1
		c3.1-1.7,5.5-4.1,7.2-7.2c0.6-1.2,1.3-2.4,3.1-2.2L555.9,270.2z"/>
	<path class="st18" d="M499.4,290.9c-4.5,4.2-9.1,8.1-15.2,9.8C489,297,493.9,293.6,499.4,290.9z"/>
	<path class="st21" d="M416.9,344.7c-2.6,3.8-6.8,5.4-10.5,7.8c-1.4,0.9-2.6,2.4-4.6,2.2C406.5,350.8,411.6,347.7,416.9,344.7z"/>
	<path class="st21" d="M401.9,354.6c-2.6,3.7-6.2,5.9-10.5,6.9C394.5,358.6,398.1,356.5,401.9,354.6z"/>
	<path class="st18" d="M536.1,266.7c-2,2.9-4.8,4.7-8.3,5.5C530.4,270.1,533,268,536.1,266.7z"/>
	<path class="st18" d="M504,288c-1,1.8-2.5,2.8-4.6,2.9C500.5,289.4,502,288.3,504,288z"/>
	<path class="st24" d="M362.2,546.6c-0.3-2.3-0.2-4.2,3.1-3.8c2.7,0.3,5.3,0.3,5.2,4.2c-0.1,3.6-2.6,3.6-5.1,3.9
		C361.7,551.2,362.1,548.9,362.2,546.6z"/>
	<path class="st25" d="M362.3,530.9c-0.4-2.2,0.4-3.3,2.8-3.1c2,0.2,4.3,0,4.2,2.9c0,2.7-2,3-4.2,3.2
		C362.7,534.2,361.9,533.2,362.3,530.9z"/>
	<path class="st26" d="M261.7,546.5c-0.2-2.1-0.3-3.9,2.9-3.6c2.8,0.2,5.3,0.4,5.3,4.1c0,3.5-2.5,3.7-5.1,3.9
		C260.9,551.2,261.7,548.6,261.7,546.5z"/>
	<path class="st27" d="M264.4,527.6c2.6,0,4.7,0.4,4.5,3.4c-0.2,2.9-2.3,3-4.6,3.2c-2.8,0.2-2.8-1.4-3-3.5
		C261.2,528.2,262.3,527.3,264.4,527.6z"/>
	<path class="st28" d="M421.4,532.1c-0.1-2.3-0.6-4.6,3.2-4.3c3.1,0.2,5.2,1,5.2,4.4c0,3.6-2.4,4-5.3,4.3
		C420.6,536.9,421.6,534.2,421.4,532.1z"/>
	<path class="st29" d="M527.7,533c-0.4-3.5-0.4-5.5,3.2-5.2c3.2,0.2,5,1.2,5,4.6c-0.1,3.6-2.6,3.9-5.5,4.1
		C526.4,536.7,527.8,533.8,527.7,533z"/>
	<path class="st30" d="M452.8,539.1c0-3,0.1-6,0-9c-0.1-1.9,0.8-2.4,2.5-2.2c2.6,0.2,4.6,1.3,5.4,3.9c1.4,4.8,1.6,9.6-0.1,14.3
		c-0.5,1.3-1.1,2.5-2.2,3.4c-1.4,1-3,1.6-4.6,1.1c-1.8-0.6-0.9-2.4-0.9-3.6C452.7,544.4,452.8,541.7,452.8,539.1z"/>
	<path class="st25" d="M188.4,539.3c0-3,0.1-6,0-9c-0.1-2.3,1-2.7,3-2.5c2.6,0.3,4.5,1.6,5.1,4.2c1.1,4.5,1.2,9.1,0,13.7
		c-0.4,1.4-1,2.7-2.3,3.7c-1.5,1.1-3.2,1.8-4.9,1.1c-1.6-0.6-0.8-2.4-0.8-3.7C188.3,544.3,188.4,541.8,188.4,539.3z"/>
	<path class="st31" d="M290.4,539.9c-0.1-3.8,0.3-6.9,1.6-10c0.7-1.7,1.9-2.9,3.9-3c2-0.1,3.4,1.1,4.1,2.7
		c2.6,6.4,2.6,12.8,0.1,19.3c-0.7,1.7-2.1,2.8-4.1,2.8c-2.1,0-3.5-1.3-4.2-3.2C290.8,545.7,290.3,542.6,290.4,539.9z"/>
	<path class="st32" d="M394.6,532.6c0.8,3.6,1.6,7.2,2.3,10.9c0.2,0.7,0.3,1.8-0.5,1.9c-1.3,0.3-2.7,0.3-4,0
		c-1.2-0.2-0.7-1.4-0.6-2.2c0.7-3.5,1.3-7.1,2-10.6C394,532.6,394.3,532.6,394.6,532.6z"/>
	<path class="st33" d="M162,536.3c0,2.6,0.5,5.1,1.4,7.6c-0.3,2.7-2.3,1.8-3.7,1.6c-1.6-0.2-1-1.7-1.1-2.7c-0.1-2.3,0.8-4.3,1.1-6.5
		l0,0c1-0.8-0.2-2.3,1.1-3.1C162.3,533.8,161.1,535.5,162,536.3z"/>
	<path class="st34" d="M159.7,536.3c0.5,2-0.6,3.9-0.6,5.8c0,1-1,2.5,0.5,2.9c1.3,0.4,3,0.9,3.8-1.1c1.1,2.4-0.7,2.1-2,2.1
		c-1.4-0.1-3.8,0.8-3.5-1.8C158.2,541.5,158.2,538.7,159.7,536.3z"/>
	<path class="st34" d="M162,536.3c-0.4-0.7-0.7-1.5-1.1-2.3c-0.4,0.8-0.8,1.5-1.2,2.2c-0.2-1.7-0.2-3.4,1.2-4.8
		C162,533,162.4,534.5,162,536.3z"/>
	<path class="st35" d="M565.6,525.6c-0.1,4.8-3.3,8.4-7.7,8.4c-4.7,0.1-8-3.5-8-8.5c0.1-4.9,3.5-8.6,8-8.5
		C562.2,517.1,565.6,521,565.6,525.6z"/>
	<path class="st36" d="M397.6,392.2c-9.6-0.1-19.2,0.1-28.7-0.5c-2.8-0.2-5.7,0.3-8.6,0.5c-2.3,0.1-2.4,1.7-2.4,3.4
		c-0.1,4.6-0.1,9.2-0.5,13.8c-0.6,6.9-0.7,13.9-1.1,20.9c-0.1,2.2,0.9,3.2,3.1,3.2c9.8,0.3,19.6,1.3,29.5,1.4
		c15.5,0.1,30.9,0.3,46.4,0.9c7.7,0.3,15.3,1.5,22.3,5.2c7,3.6,8.8,13.4,3.2,18.2c-2.1,1.8-4.8,1.9-7.4,2.1
		c-7.9,0.6-15.5-1.8-23.3-2.8c-10.9-1.3-21.7-3-32.7-3.4c-5.7-0.2-11.4-1.1-17.1-1.1c-5.7-0.1-11.4,0.7-17.1,0.8
		c-7.3,0.1-14.6,2.2-21.9,0.6c-4.7-1.1-7.2-4.2-8.2-9c-1.7-8.3,0.6-16.4,1.3-24.5c0.8-9.2,1.9-18.3,2.5-27.5
		c0.8-11.1,1.6-22.1,1.6-33.2c0-11.4-2.3-22.5-4.7-33.6c-0.8-3.5-1.5-7.1-2-10.6c-0.6-4.1,2.3-7.2,7.2-7.8c0.9-0.1,1.8-0.2,2.6,0
		c9.9,1.6,19.6-0.8,29.2-2.4c13.1-2.1,26.3-4.2,39.3-6.9c8.9-1.8,18.1-2.2,26.5-5.9c2.6-1.1,5.2-2.5,7.8-3.6
		c6.1-2.6,13.4,1.2,13.7,7.8c0.6,11.5,2.6,12.3-10.2,15.3c-13.9,3.3-28.1,5.5-42.1,8.3c-15.5,3-31,6.1-46.5,9.1
		c-2.2,0.4-3.4,1.4-2.7,3.8c1.8,6.4,1.3,12.8,0.7,19.3c-0.5,5-0.1,10-0.2,15c-0.1,2.5,1.3,2.9,3.4,2.8c12.2-0.3,24.4,0.7,36.6,1.7
		c9.5,0.7,18.9,0.7,28.4,0.6c3.7-0.1,7.4-0.9,11.2-0.7c5.8,0.3,7.2,1.6,7.9,7.2c0.5,3.7-1.9,6.6-6.5,7.9
		C424.7,392.2,411.2,392.4,397.6,392.2z"/>
	<path class="st37" d="M574.2,252c6-6.2,13.4-8.8,22-8.1c5.5,0.5,9.5,5.7,10.4,12.9c1.2,10-2.1,18-10.2,24.2
		c-13.8,10.6-24.4,24-32.7,39.3c-10.5,19.5-18.3,40-24.7,61.2c-4.6,15.1-9.4,30.2-13.7,45.4c-2,7.2-3,14.6-5.5,21.7
		c-2,5.6-4.9,8-10.7,8.3c-10.1,0.5-13.5-2.3-17.4-12.1c-3.6-9.1-8.2-17.8-12.3-26.8c-0.9-2-1.7-4.1-2.5-6.2c2.7-0.3,2.3,2.6,3.7,3.6
		c2,2.4,3.4,5.2,4.5,8.1c3.1,8.5,8,16.1,11.4,24.4c1.9,4.8,6.4,6.8,11.7,6.2c4.8-0.5,8.2-3.6,9.6-8.7c4-14.4,7-29.1,11.5-43.4
		c2.8-8.8,5.6-17.6,8.7-26.3c1-2.7,1.6-5.5,2.3-8.3c1.8-7.3,5-14.1,7.6-21.1c2.3-6.3,5.3-12.4,8.4-18.4c3.9-7.7,8.2-15.1,12.8-22.4
		c4.5-7.3,10.2-13.5,16.3-19.5c4.8-4.7,10.8-8.1,14.8-13.7c3.5-4.9,4.4-15.4,1.7-20.7c-3-5.9-10.2-5.8-16.2-3.6
		c-3.4,1.2-6.4,3.4-9.8,4.5C575.2,252.7,574.6,252.5,574.2,252z"/>
	<path class="st38" d="M574.2,252c0.6,0,1.2,0.1,1.7,0.1c0.4,1.6-0.9,2.5-1.7,3.5c-4.3,5.7-8.1,11.5-11.5,17.9
		c-6.9,13.1-13.6,26.3-20.7,39.4c-7.2,13.3-13.3,27.1-18.3,41.4c-1.2,3.5-2.5,7.1-3.9,10.5c-3.3,8.5-4.3,17.7-8.2,26
		c-2.9,6.2-6.3,8.8-11.8,8.5c-5.9-0.2-10.2-3.6-12.1-9.9c-2.2-6.9-2.9-14.2-4.1-21.3c-1.5-8.5-3.4-16.9-5-25.3
		c-0.7-3.5-2.8-6.6-4.7-9.7c-0.8-1.2-2-1.8-3.4-2.2c-7.6-2.2-15.4,3.5-15.8,11.5c-0.3,6.9,1.6,13.3,4,19.6c2.3,5.9,4.2,12,6.8,17.8
		c4.5,10.1,8.5,20.5,13.7,30.3c0.9,1.7,2.3,3.4,0.7,5.5c-1.9-0.6-1.1-3.3-3.1-3.8c-0.1-0.2-0.1-0.3,0-0.5c-0.5-2.3-2.3-3.9-2.9-6.2
		c-4.6-7.3-7.5-15.4-11.1-23.2c-3.3-7.3-5.8-15-8.4-22.6c-1.1-3.3-2.6-6.7-2.3-10.4c-0.6-3-0.5-6.1,0-9.1c0.3-3.4,1.9-6,4.4-8.2
		c1.7-1.1,3.4-2.2,5.4-3l0,0c1.6-0.2,3-0.9,4.7-1.1c5.2-0.5,8.8,1.8,11.1,6.4c2.2,5.6,3.7,11.5,5.2,17.3c0.8,2.9,0.8,6,1.6,8.9
		c1,6.3,2,12.6,3.7,18.8c0.6,2.7,0.9,5.5,1.4,8.2c1.3,5.6,4.1,8.7,8.4,9.1c6.3,0.5,8.7-0.8,11.2-6.8c1.5-3.5,2.6-7.2,3.7-10.9
		c6.4-23.3,15.3-45.7,26.6-67.1c8-15.2,16-30.4,24.1-45.5C566.3,260.6,569.4,255.6,574.2,252z"/>
	<path class="st39" d="M471,411.2c0,0.8,0.1,1.6-0.7,2.1c-3.5-3.1-4.4-7.7-6.6-11.5c-0.9-1.5-1.3-3.2-2.1-4.8c-2.9-6-7.4-8-13.2-4.8
		c-10.9,6-22.9,6.8-34.8,7.1c-14.2,0.4-28.5,0.1-42.7,0.1c-5.4,0-6.1,0.5-5.9,6c0.1,5.3-1.1,10.4-0.8,15.7c0.2,4.3,0.6,4.7,5,5.3
		c3.7,0.5,7.4,0.6,11.2,0.7c15.8,0.1,31.7,0.9,47.5,0.9c6.9,0,13.9,0.8,20.8,2.1c5.3,1,9.9,3.3,14.6,5.7c1.4,0.7,2.8,1.7,2.5,3.7
		c-0.8,0.8-1.6-0.3-2.4,0.1c-9-6.4-19.5-7.8-30.2-8.2c-21.3-0.8-42.7-1.2-64-1.7c-8.4-0.2-8.5-0.3-8.1-8.7
		c0.3-7.2,0.9-14.4,1.1-21.7c0.1-2.8,1.7-2.8,3.7-2.8c14.2,0.1,28.5,0.1,42.7,0.2c10,0.1,19.9-1.4,29.7-3.6c2.1-0.5,4.3-1.1,5.8-2.5
		c4.7-4.4,10.4-2.1,15.7-2.6c1.6-0.1,1.8,1.5,2.3,2.6C465,397.6,468,404.4,471,411.2z"/>
	<path class="st36" d="M477.7,333.8c-3.6-4.9-8.1-7.5-14.3-5.3c-0.4,0.2-1,0-1.5,0C469,325.1,475.4,327.3,477.7,333.8z"/>
	<path class="st0" d="M506.8,459.7c2.5-0.8,4.7-0.9,6.5-2c0.4-0.3,1.3-0.2,1.5,0.6c0.2,0.7-0.3,1.2-0.9,1.4
		C511.8,460.3,509.7,461.2,506.8,459.7z"/>
	<path class="st0" d="M360.7,356.2c0,1.7,0,3.4,0,5.1c0,0.6-0.1,1.4-0.9,1.4c-0.8,0-1.3-0.8-1.2-1.6c0.3-1.7,0.7-3.3,1.1-4.9
		C360.1,356.2,360.4,356.2,360.7,356.2z"/>
	<path class="st0" d="M385.6,330.1c-1.1-0.1-2.3-0.2-4.3-0.4c2-1.5,2.9-3.4,4.8-2.2C387.8,328.6,385.8,329.3,385.6,330.1
		C385.5,330.1,385.6,330.1,385.6,330.1z"/>
	<path class="st0" d="M361.1,334.6c-0.6,1.4-0.1,2.7-1.3,2.7c-0.8,0-1.7-0.7-1.6-1.7c0.1-0.9,0.3-2.1,1.7-1.9
		C360.8,333.7,361.3,334.2,361.1,334.6z"/>
	<path class="st36" d="M484.5,360.1c-1.2-2.9-1.6-5.9-1.6-8.9C484.3,354,484.6,357,484.5,360.1z"/>
	<path class="st36" d="M489.6,387c-1.2-2.6-1.5-5.4-1.4-8.2C489.4,381.5,489.9,384.2,489.6,387z"/>
	<path class="st36" d="M452.2,339.7c0,3,0,6.1,0,9.1C451.1,345.8,451.1,342.8,452.2,339.7z"/>
	<path class="st37" d="M474,405.1c1.2,2,3.2,3.5,2.9,6.2C475.6,409.3,473.9,407.6,474,405.1z"/>
	<path class="st13" d="M542.2,388.7c-0.2,2.1-0.7,4.2-2.2,5.9C540.4,392.5,540.3,390.2,542.2,388.7z"/>
	<path class="st36" d="M461.9,328.5c-1.6,1.3-3.2,2.6-5.4,3C457.9,329.7,459.6,328.5,461.9,328.5z"/>
	<path class="st40" d="M465.7,439.6c-4.4-5-10.5-6.9-16.6-8.1c-10.5-2.1-21.2-2.4-31.9-2.4c-14.3-0.1-28.7-0.4-43-0.7
		c-2.7-0.1-5.4-0.4-8.2-0.7c-2.1-0.2-3.1-1.6-3-3.6c0.2-7.5,0.5-14.9,0.8-22.4c0.1-2.9,2.2-3.2,4.5-3.2c12.1,0,24.2-0.2,36.3,0.1
		c11.3,0.3,22.3-0.9,33.3-3c2.5-0.5,4.7-1.6,6.9-2.7c2-1,3.6-2.4,6-2.7c6-0.8,10,0.7,12.1,7.1c1.8,5.6,4.8,10.9,7.2,16.3
		c4,10.1,9.1,19.8,13.3,29.9c2.2,5.3,4.2,10.8,8.7,15.1c5.7,5.5,12.3,5.7,19.4,4.8c9.6-1.1,13-7.7,15.2-15.8
		c3.3-12.7,6.7-25.4,10.3-38c1.2-4.2,2.2-8.4,4.2-12.3c0.3-0.7,0.4-1.6,1.4-1.4c0.9,0.2,0.9,1,0.9,1.8c0,0.7,0,1.5,0,2.2
		c0,32,0,64,0,96c0,6.1-0.2,6.3-6.4,6.3c-141.2,0-282.4,0-423.6,0c-2.7,0-5.4-0.1-8.2,0.5c-4.3,0.9-5.8-0.5-5.8-4.8
		c0-34.9,0-69.7,0-104.6c0-2.7,0.7-4.4,3.2-5.7c2.3-1.3,4.8-2.6,6.6-4.7c2.8-0.8,4.8-2.9,7.2-4.5c10.8-6.8,21.3-14,32-20.9
		c7.8-5,15.3-10.4,23.3-15.1c6.2-3.7,12-7.9,18.1-11.6c1.3-0.8,2.2-2.3,3.3-3.4c5.3-1.4,9.2-5.3,13.6-8.2
		c11.5-7.3,22.8-15.1,34.2-22.5c8.2-5.3,16.8-10.1,24.8-15.7c6.4-4.6,13.3-8.5,19.6-13.2c5.6-4.1,11.6-7.6,17.4-11.4
		c1.3-0.8,2.7-1.4,2.7-3.3c-0.5-3-3-3-5.2-3c-9.5,0-19,0-28.5,0c-55.5,0-111,0-166.4,0c-5.7,0-6-0.3-6-5.9c0-33.6,0-67.2,0-100.9
		c0-4.7,0.2-5,5.2-5c52.6,0,105.2,0,157.8,0c91.3,0,182.7,0,274,0c6.8,0,6.8,0,6.8,6.9c0,33.7,0,67.5,0,101.2c0,2.9-0.6,4.8-3.2,6.5
		c-9.1,5.8-18.1,11.9-27.1,17.8c-7,4.6-14.2,9.2-21.2,13.8c-7.3,4.9-14.5,9.9-21.9,14.7c-3.8,2.5-5.3,1.5-6.3-3
		c-2-8.6-9.2-14.6-20.1-12.3c-4.7,1-8.8,3.3-13.2,5c-6.4,2.4-13,3-19.5,4.3c-11.4,2.3-22.9,4.3-34.4,6.2c-12.4,2-24.6,4.5-37.3,3.8
		c-8.3-0.4-13.2,3.8-14.4,11.5c-0.6,3.5,0.9,6.8,1.6,10.2c3.1,14.2,6.3,28.5,5.4,43.1c-1,14.7-1.7,29.5-3.4,44.2
		c-1.1,9.6-2.3,19.2-3,28.9c-0.7,9.7,5.7,19.5,14,20.7c5.5,0.8,11.2,0.4,16.8,0c10.8-0.7,21.5-2.2,32.4-0.7
		c4.9,0.7,9.9,0.2,14.9,0.8c12.7,1.6,25.4,2.5,38,5c7.3,1.5,14.5,2,21.5-1.7c4.5-2.5,8.9-11.2,7.4-16.2
		C469.7,445.6,468.8,441.9,465.7,439.6z"/>
	<path class="st41" d="M545.2,262.6c1-0.5,2-1,3-1.5c2.3-1.2,4.4,0.1,6.5,0.6c2,0.4,2.1,2.3,1.5,4c-1.9,4.9-4.3,9.5-8.7,12.6
		c-8.1,5.8-16.4,11.1-24.6,16.7c-2.2,1.5-4.3,3.3-6.9,4.4c-0.3,0.2-0.5,0.5-0.8,0.7c-6.9,5.1-14.1,9.6-21.3,14.2
		c-4.7,3-8.8,6.8-13.9,9.1c0,0,0,0,0,0c-6.1-2.2-12.3-3.7-18.8-1.7c-0.5,0.2-1.5,0-1.7-0.3c-0.6-1,0.4-1.6,1-2.1
		c3.7-2.8,7.5-5.3,11.3-7.8c14.4-9.3,28.5-18.9,42.9-28.3c9.6-6.2,19.2-12.3,28.6-18.8C544,263.8,544.9,263.5,545.2,262.6z"/>
	<path class="st42" d="M451.3,325.3c-0.5,3.2-2.7,4.5-3.6,6.6c-1.5,3.2-2.7,6.6-2.6,10c0.1,4.6-2.9,6.7-5.9,8.8
		c-7.6,5.2-15.5,10.2-23.2,15.3c-1.2,0.8-2.3,1.5-3.7,1.5c-6.3-0.1-12.7,0.5-19-0.7c-0.9-0.2-1.8-0.2-2.1-1.2
		c-0.3-1,0.5-1.6,1.2-2.1c1.3-1,2.6-1.9,4.1-2.6c8.1-4.1,14.5-10.8,22.6-15c9-4.7,16.7-11.5,25.6-16.3
		C446.6,328.5,448.6,326.9,451.3,325.3z"/>
	<path class="st43" d="M579.7,405.1c0,10.2,0.3,20.4-0.1,30.6c-0.6,14.3,0.4,28.6,0.2,42.9c-0.1,3.7-1.4,5.9-4.7,7.6
		c-5.4,2.8-10.5,6.1-15.7,9.2c-3.1,1.8-3.8,1.4-4.9-1.9c-0.6-2,0.3-3.7,0.3-5.5c-0.2-7.5-1-15.1,0-22.7c0.6-4.4-1.2-8.9-0.6-13.4
		c1.4-9.8-0.2-19.6-0.1-29.4c0.1-10,1.3-19.9,0.8-29.9c-0.1-1.8,0.6-3.1,2.2-4c6.1-3.4,12.9-4.4,19.4-6.5c2.5-0.8,3.2,1.6,3.2,3.8
		C579.7,392.3,579.7,398.7,579.7,405.1z"/>
	<path class="st44" d="M363.2,359c0.9-6.1,0.7-13,0.4-19.8c-0.1-2.1,1.6-2.8,3.5-3.2c8.9-1.7,17.8-3.4,26.6-5.2
		c9.8-1.9,19.7-3.8,29.6-5.7c1-0.2,2-0.2,3-0.3c0.8,0,1.5,0.3,1.7,1.2c0.2,0.9-0.5,1.3-1.1,1.7c-10.7,6.9-21.7,13.6-32.2,20.8
		c-6.9,4.8-14.3,9-21,14c-0.7,0.5-1.4,1.1-2.2,1.5C366,367,363.6,365.7,363.2,359z"/>
	<path class="st12" d="M515.9,299.3c2.5-2.9,6.1-4.4,9.1-6.7c8.1-6.1,17.2-10.7,24.8-17.5c3.3-3,3.9-7,5.7-10.6
		c0.6-1.2-0.3-2.4-1.9-2.6c-1.8-0.3-3.6-1-5.5-0.8c2.9-1.8,5.7-0.1,8.4,0.7c1.6,0.5,2.3,2.2,0.9,3.9c-1.1,1.3-1.3,2.9-1.8,4.4
		c-3.3,5.7-8.7,9.3-13.5,13.5c-3.9,1.1-6.7,3.9-10,6.1c-4.5,2.9-8.9,6.1-13.4,9.1C517.9,299.2,517,299.4,515.9,299.3z"/>
	<path class="st12" d="M480,323.3c10.1-7.4,20.5-14.3,31.2-20.8c1.4-0.8,2.2-2.5,4-2.5c-0.8,1.5-2.1,2.4-3.4,3.3
		c-9.2,6.1-18.3,12.2-27.4,18.3C483,322.5,481.7,323.4,480,323.3z"/>
	<path class="st30" d="M264.6,533.2c-1.7,0.3-2.2-0.6-2.2-2.3c0-1.8,0.8-2.6,2.4-2.5c1.5,0.1,3.1,0.3,3,2.4
		C267.8,532.9,266.4,533.2,264.6,533.2z"/>
	<path class="st45" d="M553.5,525.6c0-1.1,0-2.2,0-3.4c-0.1-1.3,0.3-2.2,1.8-2.2c1.6,0,3.3-0.1,4.8,0.1c2.8,0.4,4.1,3.3,2.1,5.2
		c-1.5,1.4-1.9,2.4-0.7,4c0.4,0.6,0.9,1.4,0,1.9c-0.8,0.4-1.4-0.2-1.8-0.8c-0.3-0.5-0.6-1.1-0.9-1.6c-0.6-0.9-0.7-2.4-2.2-2.2
		c-1.8,0.2-0.9,1.7-1,2.7c-0.1,0.8,0.1,2-1.1,2c-1.2,0-1.1-1.1-1.1-2C553.5,528.1,553.5,526.9,553.5,525.6z"/>
	<path class="st46" d="M370.8,373.5c16.7,1.1,33.5,2.6,50.3,2.3c4.9-0.1,9.6-1.1,14.5-0.8c4.4,0.3,6.9,1.8,7.3,4.9
		c0.5,3.4-1.7,6.8-5.8,7.4c-7.7,1.2-15.3,3.7-23.2,3.4c-7.9-0.3-15.8,0.2-23.6,0c-9.1-0.1-18.2-0.5-27.3-0.7c-5-0.1-6.7,1.3-6.7,6.2
		c0,11.2-2,22.3-1.6,33.6c0.1,4.2,0.9,5.1,5,5.1c16.2,0.2,32.3,1.8,48.6,1.7c6.3,0,12.7-0.3,18.9,0.1c8.9,0.5,18.2,0.4,26.7,4.4
		c3.8,1.8,7.8,3.7,8,8.8c0.3,7.1-5.4,12-12.2,10.2c-7.8-2-15.8-1.9-23.5-3.5c-10.4-2.2-21-2.5-31.4-3.3c-11.6-0.9-23.4-1-35.1,0.3
		c-4.8,0.5-9.7,0.8-14.5,0.8c-7.3,0-11-5-10.8-12.3c0.1-7.3,0.9-14.5,1.7-21.8c1.7-14.7,2.4-29.5,3.2-44.2
		c0.5-9.9,0.3-19.5-0.7-29.3c-0.9-9.4-3.4-18.5-5.1-27.7c-0.7-3.9,1.7-7.7,5.7-7.8c11.7-0.1,23.2-2.1,34.8-3.5
		c6-0.7,12.2-1.5,18-2.9c10.3-2.4,20.7-3.5,31-5.8c7.8-1.7,15.4-3.3,22.4-7.4c4.7-2.8,10.3,0.9,10.7,6.4c0,0.5,0,1,0.1,1.5
		c1.3,9-0.4,11.3-9.2,13.1c-15.2,3.1-30.5,5.7-45.7,8.8c-9.9,2.1-20.1,3.3-30,5.7c-4.5,1.1-9.4,0.7-13.7,3c-1.7,0.9-2.7,1.5-2.2,3.9
		c2.3,10.8-0.3,21.6,0.1,32.4c0.2,5.6,1.1,6.8,6.7,7C365.1,373.7,367.9,373.5,370.8,373.5z"/>
	<path class="st47" d="M480,415.6c0.6-2.9-1.5-4.9-2.6-7.2c-6.9-14.5-13.5-29-18.8-44.1c-2.6-7.5-5.4-14.6-4.9-22.7
		c0.5-8.9,10.4-14.9,19.3-11c0.8,0.4,1.3,1.4,1.9,2.2c4.8,6.6,5.6,14.5,7.2,22.1c1.8,8.5,3,17.1,4.7,25.6c0.6,3.1,0.9,6.3,2,9.4
		c1.6,4.5,5.2,7.9,9.9,8.5c3.9,0.5,9.3-1.4,11.2-6.1c2.6-6.3,4.6-12.7,6.2-19.4c1.3-5.4,3.6-10.6,5.5-15.8
		c3.8-10.5,7.9-20.9,12.8-31c4.3-8.7,8.5-17.4,13.3-25.8c3.6-6.4,6.9-12.9,10.1-19.4c5-10.2,10.2-20.3,18.1-28.7
		c5.3-2.6,10-6.4,16.5-6.1c7.4,0.3,11.2,4.4,12.1,11.9c1.3,11.1-4.7,17.8-12.5,24.1c-8.7,6.9-16.1,15.1-22.3,24.6
		c-5.1,7.9-9.6,16.2-13.9,24.5c-3.6,7-6.5,14.4-9.3,21.8c-4.1,10.5-6.6,21.5-10.5,32.1c-3.9,10.6-6.7,21.5-10.1,32.3
		c-1.5,4.8-2.6,9.8-3.4,14.8c-1.1,6.3-2.8,12.7-5.7,18.4c-2,4-7,5.3-11.8,4.8c-5-0.5-8.4-3.3-10-7.8c-3.4-9.5-9.5-17.8-12.3-27.6
		C482.3,418.2,480,417.6,480,415.6z"/>
	<path class="st48" d="M558,525c-1.3,0.1-2.4-0.1-2.3-2c0.1-1.7,1.4-1.5,2.4-1.5c1.2,0,2.8-0.1,2.9,1.6
		C561.1,525.1,559.5,525,558,525z"/>
</g>
</svg>
