<svg id="Layer_1" data-name="Layer 1" xmlns="http://www.w3.org/2000/svg" viewBox="0 0 668.04 668.04"><defs><style>.cls-1{fill:#090506;}.cls-2{fill:#140302;}.cls-3{fill:#d7ae52;}.cls-4{fill:#24a9e0;}.cls-5{fill:#fefefe;}.cls-6{fill:#dbb056;}.cls-7{fill:#34a0cd;}.cls-8{fill:#3a9dc7;}.cls-9{fill:#d7ab52;}.cls-10{fill:#4991b6;}.cls-11{fill:#dcb157;}.cls-12{fill:#dab053;}.cls-13{fill:#f5f6f5;}.cls-14{fill:#4496ba;}.cls-15{fill:#4a9ec3;}.cls-16{fill:#4a9bc6;}.cls-17{fill:#4793b5;}.cls-18{fill:#4887a6;}.cls-19{fill:#b49767;}.cls-20{fill:#7c282a;}.cls-21{fill:#8a2d32;}.cls-22{fill:#8b2c31;}.cls-23{fill:#dbb258;}.cls-24{fill:#f5b323;}.cls-25{fill:#23a9e0;}.cls-26{fill:#24a9e1;}.cls-27{fill:#23a9e1;}.cls-28{fill:#f4b524;}.cls-29{fill:#ba2025;}.cls-30{fill:#bb2023;}</style></defs><path class="cls-1" d="M254.31,270.43c-8.21-.69-15.54-1.31-22.87-1.91l-135.67-11c-4.18-.34-8.35-.81-12.54-1-2.09-.08-2.93-1-2.87-3.95.11-5.81,0-11.64,0-17.46q0-76.52-.07-153c0-4.63,1-5.65,4.27-5.65q215.25.16,430.5.1c9.39,0,18.79,0,28.18-.11a8.77,8.77,0,0,1,6.11,2.17q12.92,10.88,26,21.42c2.13,1.7,2.87,3.66,2.86,7q-.13,56.75-.05,113.49c0,6,0,6,4.25,4.63,10.57-3.36,18.69.95,22.33,11.86,5.47,16.4,2.79,36.21-7.83,47-21.21,21.63-34.16,50.9-44.46,83-3.69,11.46-6.92,23.15-9.93,35-.76,3-.55,3.8,2,3.75,11.18-.19,22.35,0,33.53-.2,3.12-.05,4.42.79,4.4,5.6q-.24,74.73-.09,149.44c0,3.42-.89,5.2-3,6.83-9.47,7.28-18.91,14.63-28.23,22.25a15.54,15.54,0,0,1-10.44,3.68q-75.63-.1-151.25-.06-152,0-304,0c-6,0-5,.61-5-6.88,0-51.53,0-103-.09-154.58,0-5.1.93-8.24,4.3-11.18,33.08-28.91,66-58.11,99-87.22q34-30,68.09-60.09C252.32,272.73,252.86,272,254.31,270.43Z"/><path class="cls-2" d="M379.76,384.39a24.49,24.49,0,0,1-11.3,11.89c-2.66,1.33-4.71,3.74-7.29,5.51,1.85,4,4.75,3.07,7.32,2.76,2.17-.27,4.18-.8,6.19,1a3.33,3.33,0,0,0,2.93.56c10.15-2.56,20.07,1.44,30.11,1.78a18,18,0,0,0,7.48-1.11c4.1-1.72,8.23-1.63,12.41-1.63,10,0,13.15,4.68,11.47,17.91-.53,4.16-.09,4.34,2.73,3.82,3.36-.62,6.84-.18,10.27-.13a7.62,7.62,0,0,1,2.2.54c.94.3,1.19,3.53,2.56,1.46.86-1.3-.43-2.8-.86-4.14-3.37-10.56-7.62-20.78-9.84-31.76-1.32-6.49-2.89-13.34-2.62-20.73.21-5.9-.25-11.67,1.42-17.4,1.76-6,8.86-12.42,13.56-11.71,4,.6,8.43-.41,11.73,4.37A35.41,35.41,0,0,1,476.52,363c.65,4.69,2.46,9.05,2.34,13.9-.24,9.53,2.1,18.2,4.22,27.09,1.41,5.88,1.26,12.42,1.94,18.63.38,3.42.45,7.7,4.61,5.24,2.64,6.11,4.59,6.14,8.79.14,2,3.32,3.51,1.39,3.9-1.38,1.07-7.61,4.41-14.29,4.2-22.54-.12-4.93,3-9.17,4-14.15a200,200,0,0,1,11.25-38.25c2-4.92,2.84-10.78,4.82-15.77,5-12.57,8.46-26.2,15-37.72a28,28,0,0,0,3.55-11.07c.24-2.76,2.08-3.78,2.83-5.79,2.57-7,5.33-13.85,8.1-20.65,3.62-8.87,7.3-18.55,14-23.52,4.06-3,7.1-9.74,12.78-8.33a21.79,21.79,0,0,0,10.09-.14c3.46-.75,7.8,5.35,9.33,9.61,2.11,5.93,1.21,11.88,1.6,17.84.82,12.47-3.51,21.41-10.67,28-3.8,3.5-6.9,7.95-10.05,12.16-6.83,9.13-13.33,18.71-18.23,30.17-5.75,13.48-10.31,27.67-15.28,41.63-4.25,11.91-6,25-11.16,36.56-2.29,5.1-2.81,12.18-3.93,18.43-.48,2.66.06,4.85,2.83,3.8.55-.2,2.36-1.23,1.67,1.61-.2,1.06-.92,1.34-1.51,1.82-1.91,1.86-1.77,4.9-2.37,7.52-4,16.91-7.92,33.88-11.12,51.11-1.5,8.11-2.62,16.31-4.6,24.29-4.65,18.8-20.59,20.72-29.93,13.44-4.29-3.35-6.47-9.42-8.49-15.39-5.52-16.32-10.92-32.72-16.69-48.88a16.53,16.53,0,0,0-1.25-2.57c-2.55-6.49-4.08-13.56-6.34-20.23-3.46-10.24-6.43-12.65-14.57-10.17a3.87,3.87,0,0,0-1.71,1.07c-6.07,6.53-13.49,7.3-20.71,9a98,98,0,0,1-23.45,2.12c-12.55-.14-25.1-.06-37.66,0-1.81,0-3.66-.17-3.66,3.48,0,10.58-1.29,21-1.57,31.61-.13,4.76,1.5,6.42,4.51,7a7.7,7.7,0,0,0,1.51.13c11.53-.36,23,1.64,34.56,1.11s22.79.71,34.16,1.29c8.56.44,17.17,2.15,24.94,7.88a18.65,18.65,0,0,1,4.13,3.62c5.8,6.45,6,15.13,4.81,24-.93,7-4.55,11.29-9.57,13.24-5.22,2-10.53,1.84-15.82.56a290.45,290.45,0,0,0-45.94-7.76c-6.31-.49-12.62-1.88-18.93-1.72a211.46,211.46,0,0,0-30.29,2.69c-9.4,1.62-17.38-2.49-20.93-11.32a42.1,42.1,0,0,1-2.7-18.38c.63-10,1.29-20.09,2.47-30,1-8.28,1.49-16.64,1.81-24.93.76-19.44,2.26-38.85,1.75-58.37-.38-14.59-3-28.7-5-42.94-.36-2.52-.87-5-1.21-7.51-1.79-13.34,3.58-22.2,13.77-22.81,2.7-.16,5.25,1,7.94,1,8.53-.21,16.86-2.58,25.2-4.47,17.73-4,35.43-8.26,53.09-12.84a39.12,39.12,0,0,0,15.66-7.68c9-7.52,22.65,1.17,23.63,17.44.06,1,.11,2,.15,3.08.1,2.94,1,3.6,2.89,2,3.79-3.12,7.37-6.67,11.19-9.71,1.42-1.13,2.75-2.55,4.57-1.91-.14,2.14-.61,4.49-2.13,5.06-5.23,1.95-8.79,7.4-13.28,10.84-1.31,1-3.34,2.88-5.07,0-1-1.73-1.87.29-1.89.93-.33,8.05-4.63,9.79-9.35,11.51-3.64,1.32-7.86,2.12-9.1,8.46,0,.2-.7.18-1.07.26-5.53.56-10.84,2.71-16.28,4-11.86,2.73-23.64,6.09-35.46,9.09-1.26.32-2.48.79-3.74.24-1.07-.39-1-2.11-2-3.81-.19,2.32,1.55,2.56,1.05,4-3,2.57-6.5,2.48-9.79,3.42-3.57,1-7.19,1.81-10.75,2.93-1.47.46-2.84,1.27-2.49,3.66,1.54,10.57-.83,21.05-.24,31.57.13,2.38-.89,5.73,1.43,6.76a6.06,6.06,0,0,0,6.92-.82c4.23-3.72,8.43-7.51,12.7-11.16C376.64,385,377.92,383.3,379.76,384.39Z"/><path class="cls-3" d="M475.8,299.27q-8.16,7-16.32,14c-3.18,2.72-3.52,2.59-3.44-2.61.14-9.71-2.1-17.46-9-21.81-3.49-2.21-7.4-3.21-10.67-.6-10.95,8.72-23.28,10.29-35.33,13.31-18.44,4.62-36.89,9.23-55.5,12.58a27.92,27.92,0,0,1-9.86.13,16.75,16.75,0,0,0-7.58.23c-7.57,2.2-11.1,9.45-9.51,19.68,2.51,16.05,5.42,32,6.27,48.44,1.09,21.24-.78,42.37-1.9,63.5-.9,16.87-2.57,33.67-3.81,50.5a66,66,0,0,0,0,9.22c1,13.93,6.92,21.48,17.26,21.25,7.6-.17,15.2-1.1,22.79-1.82,19.87-1.88,39.51,1.48,59.15,4.83,7.79,1.33,15.55,3,23.31,4.68a18.69,18.69,0,0,0,8.32-.48c10.64-2.57,15.53-19.84,9.06-31.68-.75-1.37-1.64-2.6-2.47-3.9,1.25-1.31,2.49-.72,3.75,0,9.23,11.8,4.25,34.14-6,38.14-4.73,1.84-9.39,3.1-14.24,1.94a435.07,435.07,0,0,0-46.43-8.15,168.09,168.09,0,0,0-45.2,0,55.94,55.94,0,0,1-16.34.15c-7.35-1.12-12.22-7.1-14.72-16.36-2.18-8.11-1.8-16.55-1-24.89,2.58-26.65,3.51-53.47,5.25-80.21,1.49-23.1-1.69-45.3-5.09-67.59-.46-3-1-6-1.37-9.05-1.2-10.22,3.22-19.12,10.69-21.6a12.67,12.67,0,0,1,4.9-.88c15.76,1.17,31-3.93,46.4-7.11,11.29-2.32,22.39-6.1,33.72-8.18,7.24-1.33,14-4.77,20.66-8.49,6.48-3.61,12.93-5,19.29.53,3.95,3.41,6.3,8.32,7.53,14.29,1.07,5.13,2.22,5.85,5.49,2.89,13.27-12,26.62-23.9,40.12-35.43,9-7.69,17.34-16.75,26.72-23.65,4.7-3.45,6.55-8.25,6.51-15.77-.26-43.8-.13-87.61-.13-131.43,0-1.88,0-3.76-.09-5.64-.14-3.11-1.36-4.61-3.65-4.73-1.39-.08-2.79-.09-4.18-.09H96.52c-8.09,0-8.09,0-8.09,11.14V225.33c0,1.88-.05,3.77,0,5.65.2,5,.84,5.89,4.55,6.18,1.52.11,3,.05,4.57.05h189.3a30.18,30.18,0,0,1,5.7.21c2.08.39,4,1.15,4.64,4.39-.68,3.57-2.15,5.43-5,4.18.87-1.13,1.75-2.25,2.72-3.5-1.42-1.35-2.85-.74-4.16-.74q-100.18,0-200.36,0c-5.19,0-5.18,0-5.18-6.87,0-48.44.05-96.87-.1-145.31,0-5.11.87-6.59,4.82-6.58q96.36.28,192.72.15H446.06c30.09,0,60.18.07,90.27-.13,3.44,0,4.2,1.32,4.19,5.76q-.16,72.66.07,145.31c0,5.74-1.37,8.89-4.81,11.89-19.8,17.27-39.46,34.82-59.17,52.28A8.7,8.7,0,0,0,475.8,299.27Z"/><path class="cls-4" d="M545.94,163.31c0-24.29.06-48.58-.05-72.87,0-4.41.71-5.15,3.51-2.79,6.87,5.78,13.81,11.41,20.77,17,1.88,1.51,2.4,3.53,2.4,6.34q-.06,57.74,0,115.46c0,2.4-.33,4.25-2,5.64a45.28,45.28,0,0,0-9,11c-1.34,2.18-2.7,2.5-4.64,2-11-2.69-11-2.63-11-17.63Q546,195.39,545.94,163.31Z"/><path class="cls-5" d="M540.31,292.75c-3.78,9.68-7.62,19.22-11.27,28.89-9.78,25.94-18.24,52.63-24.27,80.62-.63,2.94-1.67,3.67-3.74,3.58a107.58,107.58,0,0,0-12.18.05c-2.56.19-3.47-1-3.92-4.4-1.63-12.27-3.49-24.48-5.36-36.69a30.81,30.81,0,0,0-2-8.24c-2.48-5.17-.64-7.56,2.49-10.37,19.3-17.31,38.49-34.84,57.74-52.28C538.44,293.3,539,292.18,540.31,292.75Z"/><path class="cls-6" d="M464.39,459.82c5.33,13.36,9.45,27.47,14.31,41.12,2.13,6,3.85,12.22,6.52,17.88C488,524.76,492,528,497,528.63c13.08,1.71,19-4.34,21.74-17.38,2.93-13.94,5.32-28.08,8.21-42,2.25-10.83,4.48-21.69,7.52-32.19,1-2.57,1.29-5.49,2.27-8.06l2.29-.49.77.57c.64,1.43.35,3,.35,4.52q0,73.88,0,147.77c0,1.51.28,3.09-.34,4.52l-.12.1c-1.32.95-2.74.48-4.11.48q-222.4,0-444.8,0c-5.65,0-5.13.3-5.12-6.92q0-71.61,0-143.22c0-2.53-.57-5.05-.07-7.59,2.39-3.81,5.94-5.37,8.8-8.28.93-.36,1.86-.85,2.75.1-.22,4-2.87,5-4.79,6.63-2.93,2.44-4,5.56-4,10.15q.09,69,.06,138.08c0,7.3.72,8.13,6,7.27a52,52,0,0,1,8.36-.39H528.17c8.94,0,8.94,0,8.94-12.15q0-60.82,0-121.65a28,28,0,0,0-.44-6.59c-3.07,11-5.14,21.15-7.25,31.29-2.57,12.34-4.39,24.95-7.17,37.23a77.23,77.23,0,0,1-3.56,11.31c-2.78,7-7.62,9.45-13.08,10.86-10.4,2.68-20-2.08-24.57-14.63-6.47-17.6-12.7-35.4-17.78-53.86A5.44,5.44,0,0,1,464.39,459.82Z"/><path class="cls-7" d="M96.6,249.49H274.09c-9.35,10.14-18.69,15-30.46,13.09-16.22-2.6-32.63-3.05-49-4.38-26.32-2.13-52.65-4.18-79-6.34-6.43-.53-12.85-1.37-19.28-2.06Z"/><path class="cls-8" d="M530.58,261.91l.53-.66c2-.69,3.49-2.61,5.2-4,1.06-.85,1.94-2.26,3.37-1.36.78,3.06-1.24,3.74-2.44,4.88-10.27,9.74-20.89,18.78-31.4,28-15.29,13.48-30.39,27.35-45.87,40.43a34.94,34.94,0,0,0-5.67,6.3c5.83-1.27,11.16-1.45,16.31,1.38,1.16.64,2.44,1.07,3,2.83-.66,3.89-2.53,2.1-3.79,1.17-6.23-4.63-12.35-3.61-18.48.21-4.66,2.91-7.95,7.66-10.17,13.83a93.9,93.9,0,0,0-1.61,13,11.3,11.3,0,0,1-3.77,8.8c-7.79,7-15.68,13.72-23.23,21.15l-2,2.25c-4.42,2.81-9.15,2-13.76,1.8-4.89-.21-9.79-.62-14.69-.94-1.32-.09-2.55-.29-3.08-2.23-.65-2.39.66-3.39,1.85-4.36a21.12,21.12,0,0,0,2.66-2.83l-.05.06c3.74-2.75,7.51-5.44,10.67-9.39l-.05.07c5.2-4.32,10.53-8.39,15.28-13.64Q442,339.87,474.58,311c1-.93,2.18-1.65,3.28-2.47a130.32,130.32,0,0,0,15.43-13.4l-.05.07a35.72,35.72,0,0,0,4.69-4q2.16-2.12,4.33-4.22a208,208,0,0,0,20-17.52l-.06.06A40.27,40.27,0,0,0,530.58,261.91Z"/><path class="cls-9" d="M85.68,428.73a35.34,35.34,0,0,1,.82,8.06q-.06,70.57,0,141.16a26,26,0,0,1-.1,4.6c-.51,2.7.41,3.4,2.13,3.39,1.15,0,2.29,0,3.43,0l447.8,0c-1.1,1.28-2.43.69-3.65.69q-223.14.06-446.28.15c-3.64,0-4.67-1.32-4.66-6.28.13-47.57,0-95.13.08-142.7C85.22,434.8,84.76,431.69,85.68,428.73Z"/><path class="cls-10" d="M547.63,504.84c0-23.76.07-47.53-.06-71.29,0-4.29,1-6.52,4-7.84,7.24-3.1,14.39-6.55,21.54-10,2.31-1.12,3.39-1.1,3.38,2.94q-.1,69.24,0,138.48c0,2.46-.55,4-2.24,5.34-7.6,5.81-15.1,11.87-22.67,17.76-3.61,2.81-4,2.52-4-3Q547.61,541,547.63,504.84Z"/><path class="cls-11" d="M377.57,348.8c10.46-2.59,20.92-5.15,31.37-7.79,7.34-1.86,14.66-3.9,22-5.7.93-.22,2.51-2.13,3,1-10.5,9.16-21.07,18.18-31.49,27.51-7.58,6.8-15.54,12.84-22.66,20.57-5.51,3.51-10.38,8.47-15.31,13.15-3.22,3.06-6.5,2.27-9.83,2.34-1.91,0-1.57-2.25-1.53-3.86.2-8.37.45-16.73.7-25.09a50.53,50.53,0,0,0-.5-11.21c-.58-3,.17-4.21,2.45-4.88,7.28-2.14,14.75-3.07,21.9-6.06Z"/><path class="cls-12" d="M292.19,246c1.85-.1,3.09-1.85,4.52-3.06,1.1,3.42-1.06,4.48-2.49,5.82-6.54,6.17-13.45,11.6-20,17.76-11.94,11.23-24.17,21.89-36.49,32.28-13.11,11-25.59,23.39-38.86,34.06-4.25,3.42-8,7.86-12.45,10.83-1.22.82-2.36,2.16-3.89,1.17-.62-1.25.38-1.76.64-2.6,9.06-8.14,18.07-16.37,27.17-24.42q40.2-35.62,80.46-71.12A6.11,6.11,0,0,1,292.19,246Z"/><path class="cls-13" d="M419.6,401.26c6.76-6.15,13.51-12.32,20.3-18.42,1.31-1.18,1.65.11,2,1.64,1.4,6,2.85,12,4.4,18,.64,2.45.35,3.6-1.71,3.43-2.63-.2-5.18,0-7.73-1.83-3.66-2.7-7.85-2.31-11.92-2.06-1.69.11-3.39.25-5.09.38Z"/><path class="cls-9" d="M183.17,342.25l-.69,2.36a8.77,8.77,0,0,1-3.25,6c-11.17,9.43-22.34,18.87-33.27,28.77-9.68,8.77-19.5,17.23-29.15,26-5.56,5.08-11.47,9.42-16.94,14.7-.8.78-1.69,1.68-2.73.47l-2.65-.15q20-17.77,40-35.53,23.67-21,47.35-41.88A7.57,7.57,0,0,1,183.17,342.25Z"/><path class="cls-14" d="M440.78,354.87c4.17-14.62,18.85-22,28.6-14.82,1.2.88,3,2.67,4.17-.57l.33-.59c7.12-5.59,13.82-12,20.54-18.44,3.21-3.06,6.78-5.35,10-8.46a22.48,22.48,0,0,0,4.29-5,4.17,4.17,0,0,1,1.34-1.25c4.08-1.93,7.36-5.68,10.85-8.88,4.34-4,8.76-7.83,13.06-11.91a2.13,2.13,0,0,1,2.15-.6,1.76,1.76,0,0,1,.83.92c-9,9.5-18.77,17.36-28.11,26.14-10.9,10.25-22.11,19.94-33.11,30-2.09,1.92-3.54,2.42-6,.48-9.61-7.48-21.44-1.73-27.95,13.1C441.38,355.47,441.06,355.44,440.78,354.87Z"/><path class="cls-15" d="M559.11,414.91c-5.87,2.1-11.1,6.94-17.48,6.8-1.27,0-3.62,1.22-3.28-2.26.25-2.51.13-6.11,3.42-6,5.7.13,11.39,0,17.09,0C558.94,413.94,559,414.43,559.11,414.91Z"/><path class="cls-9" d="M539.85,585.86V429.05c1.13,1.38.61,3.21.61,4.81q.06,74.13,0,148.27C540.46,583.39,541,584.9,539.85,585.86Z"/><path class="cls-16" d="M493.92,421.76c-1.39,0-2.79,0-4.18,0-3.17-.11-2.51-3.65-2.77-6.07-.36-3.29,1.72-2.2,2.88-2.26a79.81,79.81,0,0,1,8.75,0c1.17.07,3.24-1,3.11,2-.12,2.71-.14,6.15-3.23,6.34C497,421.85,495.44,421.77,493.92,421.76Z"/><path class="cls-17" d="M383.57,391.66a5.47,5.47,0,0,1-2.25,3.3c-.93.8-2.18,1.46-1.63,3.47s1.79,1.49,2.91,1.66a94.46,94.46,0,0,0,28,.13c-1.31,1.65-2.73,3-4.63,3-10.58,0-21.09-1.27-32.43-2.25A34.49,34.49,0,0,1,383.57,391.66Z"/><path class="cls-18" d="M446.31,421.91c-2.45.55-4.58.08-4.61-5.26,0-4.62,2.24-3.21,3.87-3.28,3.85-.17,5.84,2.09,5.89,6.31C451.48,421.78,451.27,421.88,446.31,421.91Z"/><path class="cls-17" d="M440.78,354.87l.94.09c-.79,5.36-1.9,10.65-1.7,16.18a5.52,5.52,0,0,1-2.06,4.59q-12.1,11-24.27,22c-.29.25-.73.2-1.09.28,4.81-6.9,11.27-10.76,16.81-16.34a55.2,55.2,0,0,1,6-5.35c2.91-2.18,3.54-5.66,3.76-9.38C439.41,362.79,440.16,358.86,440.78,354.87Z"/><path class="cls-14" d="M539.84,256.28c-2.13-.33-3.39,1.86-5,3.11-1.18.95-2.27,2.12-3.77,1.86,3.35-3,6.67-6,10-8.92,1.84-1.56,12,.08,13.43,2a2.6,2.6,0,0,1,.13,2.76c-1.34,3.23-2.1,6.91-4.06,9.67l-.42-.43c-.59-2.18.22-4,.92-5.78,1.17-3,.3-4.5-1.94-5-2-.45-3.9-1.71-5.92-.35C542.18,255.74,541.2,257.11,539.84,256.28Z"/><path class="cls-19" d="M498.42,428c-.26,4.71-2.71,6-5.54,5.54-2.08-.33-4.26-1.63-3.25-5.68Z"/><path class="cls-14" d="M522.25,269.43c-3,5.87-7.92,8.19-12.09,11.81-2.48,2.16-4.59,5.56-7.9,5.71C508.7,280.66,515.21,274.5,522.25,269.43Z"/><path class="cls-14" d="M550.66,266.73c-1.94,9.74-7.7,14.31-13.74,18.51l-.19-.33c-.17-3.19,1.73-4.38,3.29-5.55a22.8,22.8,0,0,0,7.29-9.9c.66-1.58,1.36-3.36,3.12-3Z"/><path class="cls-14" d="M493.29,295.11c-4.55,5.72-9.27,11.07-15.43,13.4A89.44,89.44,0,0,1,493.29,295.11Z"/><path class="cls-17" d="M409.42,368.76c-2.63,5.18-6.94,7.39-10.62,10.66-1.38,1.23-2.67,3.27-4.66,3A99.41,99.41,0,0,1,409.42,368.76Z"/><path class="cls-17" d="M394.19,382.33c-2.64,5-6.26,8-10.67,9.39A46.27,46.27,0,0,1,394.19,382.33Z"/><path class="cls-14" d="M530.58,261.91c-2.08,4-4.88,6.48-8.39,7.58A37,37,0,0,1,530.58,261.91Z"/><path class="cls-14" d="M497.93,291.17c-1,2.49-2.56,3.87-4.69,4C494.4,293,495.93,291.58,497.93,291.17Z"/><path class="cls-20" d="M389.81,433.84c-9.74-.15-19.48.15-29.21-.65-2.89-.23-5.81.46-8.71.64-2.37.16-2.41,2.35-2.47,4.7-.14,6.32-.11,12.62-.53,19-.63,9.51-.74,19.08-1.12,28.62-.13,3.07.87,4.35,3.1,4.43,10,.39,19.94,1.8,30,1.92,15.72.18,31.44.42,47.15,1.26,7.8.41,15.56,2.09,22.7,7.07s8.95,18.39,3.2,24.86c-2.18,2.46-4.84,2.66-7.5,2.93-8.07.79-15.79-2.51-23.69-3.79-11.05-1.79-22.05-4.08-33.19-4.69-5.81-.32-11.6-1.47-17.41-1.54s-11.61,1-17.42,1.11c-7.44.17-14.83,3.07-22.3.76-4.81-1.49-7.34-5.79-8.32-12.29-1.71-11.4.62-22.46,1.36-33.59.83-12.54,1.94-25.07,2.58-37.65.77-15.16,1.64-30.31,1.61-45.52,0-15.65-2.33-30.84-4.74-46-.76-4.83-1.5-9.67-2.07-14.54-.66-5.57,2.29-9.79,7.33-10.71a7.22,7.22,0,0,1,2.66-.06c10.1,2.17,19.89-1.06,29.71-3.22,13.35-2.94,26.71-5.8,39.95-9.43,9-2.46,18.36-3,26.94-8.05,2.66-1.57,5.24-3.38,7.91-4.89,6.23-3.53,13.59,1.65,13.92,10.66.58,15.71,2.63,16.89-10.36,21-14.13,4.49-28.51,7.59-42.77,11.35-15.77,4.14-31.53,8.35-47.3,12.52-2.19.57-3.45,1.87-2.75,5.25,1.82,8.72,1.37,17.52.75,26.42-.48,6.79-.12,13.68-.23,20.52-.05,3.37,1.37,4,3.42,3.89,12.43-.48,24.82,1,37.18,2.3a234.15,234.15,0,0,0,28.88.76c3.8-.08,7.54-1.24,11.37-.94,5.85.46,7.36,2.19,8.07,9.88.47,5-2,9.11-6.57,10.79C417.42,433.79,403.63,434.11,389.81,433.84Z"/><path class="cls-21" d="M569.3,241.78c6.13-8.53,13.64-12.08,22.35-11,5.56.68,9.68,7.76,10.57,17.63,1.25,13.75-2.13,24.6-10.35,33.14-14,14.58-24.8,32.81-33.24,53.85-10.71,26.71-18.63,54.79-25.11,83.8-4.64,20.74-9.58,41.36-13.91,62.22-2.05,9.85-3,20.05-5.61,29.74-2,7.62-4.93,10.89-10.85,11.31-10.24.71-13.68-3.11-17.68-16.62-3.7-12.47-8.35-24.44-12.52-36.66-.95-2.77-1.69-5.68-2.52-8.53,2.73-.35,2.35,3.59,3.81,5a41,41,0,0,1,4.57,11.14c3.13,11.59,8.15,22,11.58,33.46,2,6.58,6.53,9.28,11.9,8.56,4.89-.67,8.3-4.9,9.73-11.88,4.06-19.75,7.09-39.88,11.71-59.43,2.85-12.05,5.69-24.12,8.85-36,1-3.71,1.67-7.56,2.36-11.33,1.83-10,5.1-19.32,7.73-28.9,2.36-8.59,5.36-16.92,8.5-25.14,4-10.5,8.35-20.66,13-30.68s10.39-18.45,16.51-26.65c4.85-6.5,11-11.09,15-18.77,3.59-6.74,4.45-21,1.7-28.33-3.06-8.13-10.31-8-16.5-5-3.44,1.66-6.45,4.71-10,6.13A1.79,1.79,0,0,1,569.3,241.78Z"/><path class="cls-22" d="M569.3,241.78l1.77.12c.44,2.25-.9,3.38-1.7,4.83a199.8,199.8,0,0,0-11.65,24.46c-7,17.94-13.85,36.06-21.06,53.9A468.9,468.9,0,0,0,518,381.74c-1.27,4.83-2.58,9.66-3.94,14.43-3.31,11.67-4.32,24.26-8.32,35.63-3,8.46-6.43,12-12,11.69-6-.34-10.33-5-12.34-13.56-2.21-9.49-2.91-19.41-4.21-29.15-1.55-11.61-3.44-23.11-5.12-34.68-.7-4.84-2.85-9.1-4.78-13.32a5.78,5.78,0,0,0-3.43-3c-7.77-3-15.61,4.82-16,15.73-.35,9.49,1.59,18.21,4.1,26.85,2.36,8.11,4.31,16.43,6.94,24.41,4.57,13.89,8.66,28.07,14,41.52.92,2.32,2.34,4.72.67,7.52-1.92-.76-1.13-4.47-3.11-5.16a1.59,1.59,0,0,1,0-.72c-.46-3.16-2.36-5.41-3-8.49-4.63-10-7.66-21.08-11.27-31.74-3.37-10-5.9-20.53-8.53-30.95-1.15-4.59-2.63-9.2-2.34-14.26a47.63,47.63,0,0,1,0-12.51,18.8,18.8,0,0,1,4.48-11.29,30.32,30.32,0,0,1,5.44-4.1l0,0c1.62-.3,3.09-1.29,4.74-1.5,5.33-.69,9,2.44,11.32,8.74,2.24,7.73,3.81,15.72,5.31,23.74.76,4,.84,8.2,1.59,12.23,1,8.63,2.06,17.26,3.75,25.72.64,3.7.92,7.48,1.46,11.21,1.27,7.69,4.16,11.91,8.5,12.42,6.39.75,8.84-1.1,11.37-9.38,1.48-4.86,2.69-9.9,3.73-15a559.58,559.58,0,0,1,27-91.89c8.13-20.77,16.22-41.57,24.44-62.28C561.26,253.56,564.46,246.78,569.3,241.78Z"/><path class="cls-23" d="M464.39,459.82c0,1.07.11,2.21-.73,2.89-3.55-4.24-4.44-10.55-6.71-15.78-.89-2-1.35-4.42-2.12-6.58-2.94-8.22-7.47-10.93-13.42-6.53-11.11,8.22-23.22,9.32-35.37,9.77-14.44.54-28.91.1-43.37.15-5.53,0-6.17.73-6,8.27.14,7.21-1.08,14.29-.82,21.49.22,5.93.59,6.46,5,7.31a64,64,0,0,0,11.38.92c16.1.15,32.18,1.19,48.28,1.22a88.19,88.19,0,0,1,21.17,2.81c5.34,1.33,10.08,4.52,14.81,7.81a5,5,0,0,1,2.57,5.1c-.8,1.14-1.64-.4-2.46.07-9.19-8.82-19.85-10.75-30.65-11.27-21.68-1-43.37-1.57-65-2.35-8.58-.31-8.64-.36-8.27-11.92.31-9.9.92-19.79,1.15-29.69.1-3.9,1.7-3.82,3.75-3.8,14.47.12,28.93.12,43.4.29,10.21.11,20.21-1.88,30.14-4.88,2.15-.65,4.37-1.45,5.89-3.37,4.83-6,10.62-2.83,16-3.51,1.58-.2,1.83,2.06,2.32,3.57Q459.85,445.8,464.39,459.82Z"/><path class="cls-20" d="M471.27,353.84c-3.67-6.71-8.21-10.23-14.56-7.25-.44.21-1,0-1.5,0C462.42,341.91,469,344.86,471.27,353.84Z"/><path class="cls-1" d="M500.84,526.25c2.55-1.08,4.76-1.22,6.6-2.8.42-.36,1.3-.25,1.53.79a1.58,1.58,0,0,1-1,1.86C505.87,527.06,503.71,528.37,500.84,526.25Z"/><path class="cls-1" d="M352.37,384.56c0,2.32,0,4.65,0,7,0,.88-.13,1.93-.9,1.88s-1.37-1.1-1.23-2.19c.29-2.27.75-4.49,1.15-6.74Z"/><path class="cls-1" d="M377.64,348.78l-4.4-.5c2-2,2.92-4.63,4.92-3,1.72,1.41-.32,2.34-.59,3.52Z"/><path class="cls-1" d="M352.79,354.86c-.59,1.85-.08,3.65-1.35,3.65a2,2,0,0,1-1.6-2.35c.14-1.23.34-2.93,1.76-2.67C352.45,353.66,352.94,354.44,352.79,354.86Z"/><path class="cls-20" d="M478.17,389.81a40.61,40.61,0,0,1-1.59-12.23A35,35,0,0,1,478.17,389.81Z"/><path class="cls-20" d="M483.38,426.74a33.31,33.31,0,0,1-1.46-11.21A29.41,29.41,0,0,1,483.38,426.74Z"/><path class="cls-20" d="M445.31,362q0,6.26,0,12.51A23.91,23.91,0,0,1,445.31,362Z"/><path class="cls-21" d="M467.46,451.42c1.22,2.68,3.23,4.86,3,8.49C469.12,457.28,467.4,454.91,467.46,451.42Z"/><path class="cls-9" d="M536.78,429c-.25,2.95-.67,5.8-2.27,8.06C534.9,434.16,534.87,431.07,536.78,429Z"/><path class="cls-20" d="M455.23,346.57c-1.61,1.84-3.28,3.56-5.44,4.1C451.16,348.24,452.87,346.6,455.23,346.57Z"/><path class="cls-24" d="M459.07,498.67c-4.51-6.79-10.72-9.43-16.91-11.11-10.67-2.89-21.56-3.27-32.45-3.34-14.57-.09-29.13-.59-43.7-1a66.8,66.8,0,0,1-8.29-1c-2.12-.33-3.1-2.14-3-4.93.24-10.23.48-20.46.81-30.68.13-3.92,2.22-4.39,4.6-4.39,12.31.05,24.62-.28,36.93.11a117.84,117.84,0,0,0,33.89-4.14,23.85,23.85,0,0,0,7-3.64c2-1.33,3.66-3.34,6.13-3.76,6.1-1,10.17.91,12.26,9.69,1.83,7.7,4.86,14.87,7.36,22.28,4.1,13.9,9.26,27.15,13.49,41,2.21,7.25,4.31,14.8,8.81,20.64,5.79,7.53,12.5,7.75,19.76,6.62,9.71-1.51,13.23-10.55,15.4-21.7,3.38-17.4,6.77-34.8,10.46-52.09,1.21-5.7,2.28-11.54,4.31-16.9.34-.9.43-2.16,1.44-1.92s.94,1.42,1,2.45,0,2.06,0,3.08q0,65.72,0,131.43c0,8.31-.25,8.62-6.5,8.62q-215.19,0-430.38,0a28.3,28.3,0,0,0-8.32.73c-4.33,1.28-5.87-.63-5.88-6.56q0-71.62,0-143.24c0-3.64.74-6,3.22-7.84s4.89-3.53,6.72-6.43c2.87-1.09,4.91-4,7.33-6.1,10.93-9.35,21.67-19.11,32.55-28.56,7.91-6.87,15.57-14.19,23.66-20.71,6.25-5,12.2-10.8,18.43-15.94,1.33-1.1,2.26-3.1,3.37-4.68,5.4-1.94,9.33-7.29,13.87-11.18,11.7-10,23.12-20.62,34.75-30.78,8.35-7.29,17.11-13.77,25.2-21.52,6.55-6.25,13.5-11.65,20-18.08,5.67-5.65,11.79-10.47,17.73-15.63,1.28-1.12,2.73-2,2.72-4.49-.56-4.17-3-4.08-5.27-4.09-9.65-.05-19.3,0-28.95,0l-169.14,0c-5.81,0-6.1-.39-6.1-8.05q0-69.06,0-138.13c0-6.48.24-6.83,5.29-6.83H531.36c6.95,0,6.95,0,6.95,9.49q0,69.31.05,138.64c0,3.9-.57,6.63-3.25,8.92-9.27,7.93-18.35,16.26-27.52,24.39-7.17,6.35-14.4,12.56-21.54,19-7.43,6.66-14.75,13.56-22.2,20.19-3.87,3.43-5.35,2-6.42-4.09-2.07-11.83-9.34-19.94-20.45-16.8-4.74,1.34-9,4.58-13.4,6.84-6.5,3.31-13.24,4.08-19.86,5.88-11.61,3.15-23.28,5.88-35,8.43-12.56,2.75-25,6.13-37.93,5.23-8.39-.58-13.39,5.17-14.68,15.78-.58,4.76.9,9.37,1.65,14,3.17,19.48,6.45,39.07,5.48,59.06-1,20.18-1.72,40.4-3.42,60.53-1.1,13.17-2.32,26.34-3.07,39.56s5.76,26.65,14.19,28.36c5.62,1.13,11.4.55,17.1.06,10.95-.94,21.87-3,32.9-.94,5,.91,10.09.26,15.15,1.1,12.89,2.12,25.85,3.39,38.61,6.82,7.42,2,14.78,2.79,21.82-2.38,4.62-3.39,9-15.4,7.53-22.23C463.07,506.89,462.17,501.94,459.07,498.67Z"/><path class="cls-25" d="M539.84,256.28l3-2.07c2.3-1.62,4.45.2,6.57.81s2.1,3.19,1.47,5.43c-1.88,6.76-4.36,13-8.88,17.32-8.18,7.88-16.67,15.14-24.95,22.83-2.27,2.1-4.41,4.53-7,6l-.77,1c-7,7-14.34,13.1-21.61,19.45-4.73,4.13-8.93,9.37-14.17,12.43h0c-6.22-3-12.49-5.12-19.11-2.29-.51.22-1.51,0-1.71-.43-.59-1.38.39-2.17,1.06-2.85,3.71-3.83,7.58-7.32,11.51-10.75,14.6-12.75,29-25.94,43.58-38.73,9.71-8.53,19.54-16.81,29-25.79A5.3,5.3,0,0,0,539.84,256.28Z"/><path class="cls-26" d="M444.39,342.25c-.49,4.37-2.71,6.23-3.69,9.11A41.36,41.36,0,0,0,438,365.05c.06,6.31-3,9.2-6,12C424.26,384.23,416.3,391,408.44,398c-1.18,1-2.34,2.09-3.81,2-6.43-.15-12.89.63-19.29-1-.9-.23-1.84-.33-2.13-1.68a3,3,0,0,1,1.22-2.92,30.52,30.52,0,0,1,4.13-3.57c8.23-5.67,14.78-14.78,22.93-20.54,9.14-6.46,16.92-15.71,26-22.29C439.63,346.51,441.63,344.4,444.39,342.25Z"/><path class="cls-27" d="M574.87,451.42c0,14,.32,28-.08,41.92-.56,19.6.44,39.18.15,58.78-.07,5.11-1.45,8.1-4.81,10.46-5.44,3.84-10.63,8.33-15.92,12.58-3.14,2.52-3.9,2-4.94-2.64-.62-2.71.35-5,.3-7.55-.19-10.33-1-20.63,0-31,.6-6-1.23-12.2-.57-18.34,1.45-13.45-.17-26.88-.09-40.31.07-13.66,1.31-27.27.76-40.94-.1-2.5.6-4.26,2.22-5.47,6.15-4.62,13.13-6,19.71-8.9,2.53-1.13,3.25,2.21,3.24,5.26Q574.87,438.35,574.87,451.42Z"/><path class="cls-28" d="M354.87,388.36c.88-8.41.67-17.75.36-27.12-.09-2.87,1.65-3.88,3.52-4.36q13.54-3.51,27.08-7.09c10-2.62,20-5.26,30-7.85a12.69,12.69,0,0,1,3-.34,1.73,1.73,0,0,1,1.75,1.58,2.29,2.29,0,0,1-1.11,2.37c-10.92,9.45-22,18.56-32.69,28.5-7.06,6.56-14.49,12.34-21.38,19.21a19.52,19.52,0,0,1-2.18,2C357.72,399.33,355.27,397.56,354.87,388.36Z"/><path class="cls-8" d="M510.1,306.58c2.55-4,6.18-6.05,9.22-9.16,8.21-8.35,17.49-14.6,25.22-24,3.38-4.12,4-9.64,5.81-14.53a2.68,2.68,0,0,0-1.88-3.62c-1.85-.47-3.65-1.39-5.59-1.07,3-2.5,5.79-.09,8.5,1,1.67.65,2.35,3,.9,5.28-1.1,1.73-1.36,3.93-1.85,6-3.36,7.78-8.85,12.69-13.7,18.45-4,1.48-6.85,5.39-10.17,8.3-4.59,4-9,8.29-13.57,12.43A3.51,3.51,0,0,1,510.1,306.58Z"/><path class="cls-8" d="M473.55,339.47c10.23-10.16,20.82-19.59,31.67-28.48,1.37-1.13,2.26-3.37,4.11-3.4a11.09,11.09,0,0,1-3.48,4.52q-14,12.43-27.83,25C476.64,338.39,475.31,339.62,473.55,339.47Z"/><path class="cls-29" d="M362.62,408.26c17,1.46,34,3.53,51.1,3.17,4.94-.11,9.79-1.57,14.77-1.14,4.48.39,7,2.4,7.44,6.75.49,4.7-1.77,9.24-5.89,10.14-7.83,1.7-15.54,5-23.54,4.6s-16,.22-24,.05c-9.24-.19-18.48-.72-27.72-.9-5.11-.1-6.83,1.75-6.82,8.56,0,15.37-2,30.59-1.66,46,.12,5.69.88,7,5.11,7,16.46.25,32.86,2.53,49.35,2.35,6.41-.07,12.9-.36,19.24.12,9.1.69,18.53.49,27.1,6,3.9,2.5,8,5.11,8.17,12,.29,9.68-5.44,16.45-12.44,14-7.89-2.77-16.05-2.55-23.9-4.83-10.56-3.07-21.32-3.47-32-4.56a141.77,141.77,0,0,0-35.7.41,103.06,103.06,0,0,1-14.76,1.11c-7.47,0-11.14-6.9-11-16.88s.93-19.91,1.76-29.83c1.69-20.14,2.48-40.36,3.28-60.6a351.47,351.47,0,0,0-.67-40.16c-1-12.87-3.48-25.29-5.19-37.94-.72-5.39,1.77-10.61,5.75-10.63,11.92-.07,23.6-2.82,35.38-4.75a128.89,128.89,0,0,0,18.27-4c10.42-3.33,21.05-4.82,31.48-8,7.9-2.38,15.63-4.48,22.75-10.18,4.73-3.79,10.42,1.24,10.88,8.71,0,.69,0,1.38.07,2.05,1.3,12.26-.36,15.5-9.34,18-15.45,4.25-31,7.79-46.44,12.12-10.09,2.83-20.41,4.47-30.43,7.77-4.62,1.52-9.53,1-13.9,4.06-1.71,1.18-2.78,2-2.25,5.3,2.35,14.74-.32,29.59.15,44.4.24,7.73,1.09,9.29,6.84,9.66C356.78,408.41,359.7,408.26,362.62,408.26Z"/><path class="cls-30" d="M473.54,465.79c.58-4-1.57-6.75-2.67-9.88-7-19.79-13.67-39.69-19.06-60.42-2.65-10.21-5.45-20.05-5-31.1.52-12.13,10.56-20.45,19.64-15.08.81.48,1.33,2,1.92,3.05,4.9,9,5.65,19.86,7.32,30.23,1.87,11.61,3.06,23.41,4.75,35.07.63,4.3.94,8.66,2.08,12.89,1.65,6.14,5.29,10.77,10.07,11.59,4,.68,9.42-2,11.36-8.34a223.59,223.59,0,0,0,6.3-26.58c1.3-7.4,3.68-14.47,5.62-21.66,3.88-14.39,8-28.66,13-42.41,4.34-11.9,8.68-23.81,13.51-35.38,3.64-8.7,7-17.62,10.24-26.6,5.06-14,10.4-27.77,18.4-39.27,5.39-3.52,10.2-8.71,16.78-8.34,7.57.43,11.43,6.06,12.32,16.35,1.31,15.26-4.73,24.39-12.75,33a132.62,132.62,0,0,0-22.61,33.72c-5.21,10.88-9.72,22.19-14.11,33.58-3.69,9.59-6.56,19.75-9.45,29.87-4.13,14.42-6.76,29.47-10.69,43.93s-6.77,29.49-10.28,44.18a196.11,196.11,0,0,0-3.5,20.32A118.55,118.55,0,0,1,511,513.68c-2,5.51-7.07,7.23-11.95,6.53-5.06-.72-8.57-4.54-10.2-10.73-3.45-13.05-9.66-24.41-12.5-37.81C475.89,469.41,473.6,468.54,473.54,465.79Z"/></svg>